<svg data-v-fde0c5aa="" xmlns="http://www.w3.org/2000/svg" viewBox="0 0 300 300" class="iconAboveSlogan"><!----><defs data-v-fde0c5aa=""><!----></defs><rect data-v-fde0c5aa="" fill="transparent" x="0" y="0" width="300px" height="300px" class="logo-background-square"></rect><defs data-v-fde0c5aa=""><!----></defs><g data-v-fde0c5aa="" id="07e00a69-cf60-4ee6-a31b-6ca59c96bb8b" fill="#000000" transform="matrix(1.9195275441707877,0,0,1.9195275441707877,18.118862970100544,150.3283995895669)"><path d="M0.98 14.08L3.47 14.08L3.47 11.33L5.25 11.33C7.76 11.33 9.20 10.00 9.20 7.70C9.20 5.52 7.76 4.28 5.25 4.28L0.98 4.28ZM3.47 9.37L3.47 6.24L5.12 6.24C6.22 6.24 6.85 6.76 6.85 7.78C6.85 8.82 6.22 9.37 5.12 9.37ZM9.86 10.33C9.86 12.63 11.40 14.17 13.86 14.17C15.25 14.17 16.38 13.68 17.15 12.84L15.88 11.59C15.37 12.10 14.73 12.36 14.07 12.36C13.17 12.36 12.53 11.86 12.29 10.96L17.60 10.96C17.77 8.20 16.45 6.45 13.79 6.45C11.45 6.45 9.86 7.99 9.86 10.33ZM12.25 9.66C12.40 8.75 12.98 8.13 13.82 8.13C14.69 8.13 15.27 8.74 15.27 9.66ZM18.28 10.33C18.28 12.63 19.82 14.17 22.29 14.17C23.67 14.17 24.81 13.68 25.58 12.84L24.30 11.59C23.80 12.10 23.16 12.36 22.50 12.36C21.60 12.36 20.96 11.86 20.72 10.96L26.03 10.96C26.19 8.20 24.88 6.45 22.22 6.45C19.88 6.45 18.28 7.99 18.28 10.33ZM20.68 9.66C20.83 8.75 21.41 8.13 22.25 8.13C23.11 8.13 23.70 8.74 23.70 9.66ZM27.34 14.08L29.76 14.08L29.76 10.21C29.89 9.14 30.81 8.48 32.21 8.61L32.21 6.43C31.14 6.44 30.28 6.93 29.76 7.81L29.76 6.54L27.34 6.54ZM33.12 10.56L36.82 10.56L36.82 9.03L33.12 9.03ZM38.57 14.08L41.06 14.08L41.06 11.33L42.84 11.33C45.35 11.33 46.79 10.00 46.79 7.70C46.79 5.52 45.35 4.28 42.84 4.28L38.57 4.28ZM41.06 9.37L41.06 6.24L42.71 6.24C43.81 6.24 44.44 6.76 44.44 7.78C44.44 8.82 43.81 9.37 42.71 9.37ZM48.08 14.08L50.50 14.08L50.50 10.21C50.62 9.14 51.55 8.48 52.95 8.61L52.95 6.43C51.87 6.44 51.02 6.93 50.50 7.81L50.50 6.54L48.08 6.54ZM53.42 10.30C53.42 12.63 55.08 14.17 57.55 14.17C60.02 14.17 61.67 12.63 61.67 10.30C61.67 7.98 60.02 6.45 57.55 6.45C55.08 6.45 53.42 7.98 53.42 10.30ZM55.86 10.33C55.86 9.17 56.55 8.37 57.55 8.37C58.55 8.37 59.23 9.17 59.23 10.33C59.23 11.51 58.55 12.29 57.55 12.29C56.55 12.29 55.86 11.51 55.86 10.33ZM62.36 10.02C62.36 12.22 63.70 13.68 65.60 13.68C66.54 13.68 67.28 13.31 67.77 12.67L67.77 13.47C67.77 14.41 67.07 15.02 65.91 15.02C65.10 15.02 64.26 14.74 63.57 14.27L62.73 15.90C63.59 16.48 64.78 16.90 66.09 16.90C68.53 16.90 70.18 15.54 70.18 13.40L70.18 6.54L67.77 6.54L67.77 7.46C67.27 6.80 66.51 6.44 65.55 6.45C63.66 6.45 62.36 7.88 62.36 10.02ZM64.61 10.09C64.61 9.00 65.25 8.25 66.21 8.25C67.14 8.25 67.77 8.99 67.77 10.09C67.77 11.17 67.14 11.93 66.21 11.93C65.25 11.93 64.61 11.17 64.61 10.09ZM72.03 14.08L74.45 14.08L74.45 10.21C74.58 9.14 75.50 8.48 76.90 8.61L76.90 6.43C75.82 6.44 74.97 6.93 74.45 7.81L74.45 6.54L72.03 6.54ZM77.42 11.83C77.42 13.22 78.40 14.20 80.01 14.20C81.03 14.20 81.83 13.86 82.32 13.22L82.32 14.08L84.69 14.08L84.69 9.16C84.67 7.45 83.47 6.43 81.40 6.43C80.14 6.43 79.07 6.73 77.90 7.28L78.58 8.88C79.38 8.47 80.21 8.25 80.84 8.25C81.82 8.25 82.31 8.69 82.31 9.44L82.31 9.55L80.32 9.55C78.44 9.56 77.42 10.40 77.42 11.83ZM79.69 11.66C79.69 11.10 80.05 10.85 80.78 10.85L82.31 10.85L82.31 11.52C82.15 12.14 81.51 12.56 80.75 12.56C80.08 12.56 79.69 12.21 79.69 11.66ZM86.41 14.08L88.82 14.08L88.82 10.35C88.82 9.32 89.39 8.58 90.31 8.55C91.11 8.55 91.60 9.10 91.60 10.00L91.60 14.08L94.02 14.08L94.02 10.35C94.02 9.32 94.58 8.58 95.49 8.55C96.29 8.55 96.80 9.10 96.80 10.00L96.80 14.08L99.20 14.08L99.20 9.32C99.20 7.56 98.14 6.43 96.49 6.43C95.24 6.44 94.32 7.01 93.83 8.13C93.45 7.07 92.54 6.43 91.31 6.43C90.20 6.44 89.33 6.89 88.82 7.78L88.82 6.54L86.41 6.54ZM100.93 14.08L103.33 14.08L103.33 10.35C103.33 9.32 103.91 8.58 104.83 8.55C105.63 8.55 106.12 9.10 106.12 10.00L106.12 14.08L108.54 14.08L108.54 10.35C108.54 9.32 109.10 8.58 110.01 8.55C110.81 8.55 111.31 9.10 111.31 10.00L111.31 14.08L113.72 14.08L113.72 9.32C113.72 7.56 112.66 6.43 111.01 6.43C109.76 6.44 108.84 7.01 108.35 8.13C107.97 7.07 107.06 6.43 105.83 6.43C104.72 6.44 103.85 6.89 103.33 7.78L103.33 6.54L100.93 6.54ZM115.39 4.37C115.39 5.12 115.92 5.66 116.66 5.66C117.40 5.66 117.94 5.12 117.94 4.37C117.94 3.63 117.40 3.09 116.66 3.09C115.92 3.09 115.39 3.63 115.39 4.37ZM115.44 14.08L117.85 14.08L117.85 6.54L115.44 6.54ZM119.80 14.08L122.22 14.08L122.22 10.09C122.32 9.20 122.88 8.57 123.76 8.57C124.57 8.57 125.09 9.11 125.09 10.00L125.09 14.08L127.50 14.08L127.50 9.32C127.50 7.56 126.41 6.43 124.74 6.43C123.62 6.44 122.75 6.89 122.22 7.77L122.22 6.54L119.80 6.54ZM128.60 10.02C128.60 12.22 129.95 13.68 131.85 13.68C132.79 13.68 133.53 13.31 134.02 12.67L134.02 13.47C134.02 14.41 133.32 15.02 132.16 15.02C131.35 15.02 130.51 14.74 129.82 14.27L128.98 15.90C129.84 16.48 131.03 16.90 132.34 16.90C134.78 16.90 136.43 15.54 136.43 13.40L136.43 6.54L134.02 6.54L134.02 7.46C133.52 6.80 132.76 6.44 131.80 6.45C129.91 6.45 128.60 7.88 128.60 10.02ZM130.86 10.09C130.86 9.00 131.50 8.25 132.45 8.25C133.39 8.25 134.02 8.99 134.02 10.09C134.02 11.17 133.39 11.93 132.45 11.93C131.50 11.93 130.86 11.17 130.86 10.09Z"></path></g><defs data-v-fde0c5aa=""><linearGradient data-v-fde0c5aa="" gradientTransform="rotate(25)" id="9f8e5efc-3d62-485b-91db-c87cf5b80619" x1="0%" y1="0%" x2="100%" y2="0%"><stop data-v-fde0c5aa="" offset="0%" stop-color="#ff7d19" stop-opacity="1"></stop><stop data-v-fde0c5aa="" offset="100%" stop-color="#BD6D2F" stop-opacity="1"></stop></linearGradient></defs><g data-v-fde0c5aa="" id="a8e8aa6c-7db8-4c07-a961-92445cf92cd0" stroke="none" fill="url(#9f8e5efc-3d62-485b-91db-c87cf5b80619)" transform="matrix(0.07643643942243374,0,0,0.07643643942243374,130.43227150785697,101.57024861353212)"><path d="M296 264v144a8.01 8.01 0 0 1-8 8h-9.376a23.885 23.885 0 0 0 1.376-8V264a23.885 23.885 0 0 0-1.376-8H288a8.01 8.01 0 0 1 8 8zm-67.928 197.24a12 12 0 0 1-9.915 18.76h-38.701a27.934 27.934 0 0 0 2.423-16H200v-16h-25.59L163.5 432h44.635zM40 416a8.01 8.01 0 0 1-8-8V264a8.01 8.01 0 0 1 8-8h216a8.01 8.01 0 0 1 8 8v144a8.01 8.01 0 0 1-8 8zm372.072-178.76a12 12 0 0 1-9.915 18.76h-38.7a27.934 27.934 0 0 0 2.422-16H384v-16h-25.59L347.5 208h44.635zM224 192a8.01 8.01 0 0 1-8-8V40a8.01 8.01 0 0 1 8-8h216a8.01 8.01 0 0 1 8 8v144a8.01 8.01 0 0 1-8 8zm256-8a8.01 8.01 0 0 1-8 8h-9.376a23.885 23.885 0 0 0 1.376-8V40a23.885 23.885 0 0 0-1.376-8H472a8.01 8.01 0 0 1 8 8z"></path><path d="M400 480H288a24.027 24.027 0 0 1-24-24v-24h16v24a8.01 8.01 0 0 0 8 8h112a8 8 0 0 0 0-16h-48a24 24 0 0 1 0-48h72a8 8 0 0 0 0-16h-32a24 24 0 0 1 0-48h48a8.01 8.01 0 0 0 8-8V208h16v120a24.027 24.027 0 0 1-24 24h-48a8 8 0 0 0 0 16h32a24 24 0 0 1 0 48h-72a8 8 0 0 0 0 16h48a24 24 0 0 1 0 48z"></path></g><defs data-v-fde0c5aa=""><!----></defs><g data-v-fde0c5aa="" id="bcd0c963-274e-48a3-9841-118695ede9bb" fill="#000000" transform="matrix(0.318669115972685,0,0,0.318669115972685,52.31198521093937,191.84427342944912)"><path d="M0.59 7.91C0.59 11.31 2.95 12.87 5.54 12.87C7.32 12.87 9.10 11.90 9.14 11.59C9.31 10.29 9.37 9.70 9.37 9.66C9.37 9.56 9.32 9.52 9.16 9.51C9.10 9.51 9.04 9.49 9.00 9.49C8.89 9.49 8.83 9.53 8.81 9.70L8.62 11.33C8.61 11.45 7.50 12.24 5.94 12.24C3.81 12.24 2.10 10.29 2.10 7.94C2.10 5.42 3.53 3.54 5.53 3.54C7.38 3.54 8.72 5.01 8.72 5.17C8.72 5.29 8.67 6.40 8.67 6.45C8.67 6.59 8.71 6.64 8.97 6.64C9.17 6.64 9.24 6.62 9.24 6.44C9.24 5.73 9.30 3.92 9.30 3.67C9.30 3.47 9.18 3.44 8.97 3.44C8.75 3.44 8.72 3.50 8.72 3.67L8.72 4.05C8.72 4.16 8.68 4.16 8.55 4.06C8.27 3.86 7.29 3.04 5.63 3.04C2.79 3.04 0.59 4.96 0.59 7.91ZM17.82 8.15C17.82 11.17 20.16 12.80 22.41 12.80C25.20 12.80 27.17 10.89 27.17 8.06C27.17 5.33 25.42 3.11 22.62 3.11C20.02 3.11 17.82 5.10 17.82 8.15ZM19.22 7.77C19.22 5.64 20.51 3.58 22.48 3.58C24.72 3.58 25.80 5.81 25.80 7.94C25.80 10.08 24.70 12.32 22.43 12.32C20.44 12.32 19.22 10.28 19.22 7.77ZM35.28 12.39C35.28 12.63 35.31 12.68 35.50 12.68C35.83 12.68 36.79 12.64 37.21 12.64C37.63 12.64 41.99 12.68 42.31 12.68C42.57 12.68 42.64 12.66 42.66 12.49C42.71 12.08 42.95 10.72 42.95 10.60C42.95 10.47 42.80 10.44 42.63 10.43C42.53 10.42 42.45 10.46 42.43 10.56L42.27 11.76C42.22 12.05 42.21 12.03 41.99 12.04C41.83 12.05 39.33 12.12 37.90 12.12C37.86 12.12 37.81 11.38 37.81 10.54L37.81 6.66C37.81 5.40 37.83 3.70 37.93 3.70L38.91 3.70C39.14 3.70 39.17 3.63 39.17 3.44C39.17 3.23 39.16 3.19 38.92 3.19C38.60 3.19 37.66 3.23 37.24 3.23C36.82 3.23 35.88 3.19 35.66 3.19C35.43 3.19 35.38 3.22 35.38 3.44C35.38 3.65 35.42 3.70 35.62 3.70L36.44 3.70C36.48 3.70 36.51 4.23 36.51 4.90L36.51 8.13C36.51 10.07 36.48 12.18 36.40 12.18L35.56 12.18C35.34 12.18 35.28 12.21 35.28 12.39ZM50.57 12.39C50.57 12.63 50.60 12.68 50.79 12.68C51.11 12.68 52.08 12.64 52.50 12.64C52.92 12.64 57.27 12.68 57.60 12.68C57.86 12.68 57.93 12.66 57.95 12.49C58.00 12.08 58.24 10.72 58.24 10.60C58.24 10.47 58.09 10.44 57.92 10.43C57.82 10.42 57.74 10.46 57.72 10.56L57.55 11.76C57.51 12.05 57.50 12.03 57.27 12.04C57.12 12.05 54.61 12.12 53.19 12.12C53.14 12.12 53.10 11.38 53.10 10.54L53.10 6.66C53.10 5.40 53.12 3.70 53.21 3.70L54.19 3.70C54.43 3.70 54.46 3.63 54.46 3.44C54.46 3.23 54.45 3.19 54.21 3.19C53.89 3.19 52.95 3.23 52.53 3.23C52.11 3.23 51.17 3.19 50.95 3.19C50.72 3.19 50.67 3.22 50.67 3.44C50.67 3.65 50.71 3.70 50.90 3.70L51.73 3.70C51.77 3.70 51.80 4.23 51.80 4.90L51.80 8.13C51.80 10.07 51.77 12.18 51.69 12.18L50.85 12.18C50.62 12.18 50.57 12.21 50.57 12.39ZM65.72 12.39C65.72 12.63 65.72 12.68 65.91 12.68C66.08 12.68 66.40 12.64 66.98 12.64C67.59 12.64 68.14 12.68 68.29 12.68C68.46 12.68 68.46 12.61 68.46 12.40C68.46 12.24 68.46 12.18 68.29 12.18L67.21 12.18C67.21 12.18 67.20 12.18 67.20 12.17C67.21 11.87 67.98 9.90 68.33 9.02C68.40 8.83 68.42 8.79 68.63 8.79L71.46 8.79C71.60 8.79 71.60 8.81 71.67 9.03C71.93 9.77 72.65 11.89 72.65 12.17C72.65 12.18 72.63 12.18 72.63 12.18L71.86 12.18C71.64 12.18 71.62 12.19 71.62 12.39C71.62 12.63 71.64 12.68 71.81 12.68C72.13 12.68 73.00 12.64 73.42 12.64C73.84 12.64 74.51 12.68 74.72 12.68C74.86 12.68 74.87 12.61 74.87 12.40C74.87 12.24 74.86 12.18 74.72 12.18L74.23 12.18C74.13 12.18 73.11 9.34 72.55 7.78L70.87 3.07C70.85 3.00 70.78 2.94 70.70 2.94C70.57 2.94 70.48 3.16 70.39 3.35C70.24 3.71 70 3.84 69.89 4.13L68.40 7.57C68.22 8.01 66.51 12.18 66.39 12.18L65.97 12.18C65.74 12.18 65.72 12.19 65.72 12.39ZM68.61 8.33C68.61 8.30 68.64 8.23 68.68 8.13L70.06 4.77C70.10 4.66 70.13 4.61 70.15 4.61C70.17 4.61 70.18 4.63 70.22 4.77L71.39 8.18C71.41 8.25 71.43 8.29 71.43 8.32C71.43 8.36 71.40 8.37 71.30 8.37L68.80 8.37C68.61 8.37 68.61 8.34 68.61 8.33ZM82.63 3.51C82.63 3.75 82.71 3.79 82.88 3.79L83.73 3.77C83.79 3.77 83.85 5.52 83.85 7.11L83.85 11.63C83.85 11.93 83.83 12.18 83.80 12.18L83.08 12.18C82.85 12.18 82.78 12.19 82.78 12.39C82.78 12.63 82.81 12.68 83.01 12.68C83.13 12.68 84.08 12.64 84.50 12.64C84.69 12.64 85.20 12.67 85.85 12.67C87.40 12.67 89.81 12.43 89.81 10.23C89.81 8.27 87.99 7.94 87.30 7.84C87.22 7.83 87.21 7.83 87.21 7.81C87.21 7.80 87.25 7.78 87.32 7.76C87.96 7.52 89.40 6.90 89.40 5.54C89.40 3.81 87.93 3.25 86.25 3.25C85.68 3.25 85.08 3.29 84.53 3.29C84.11 3.29 83.10 3.26 82.88 3.26C82.70 3.26 82.63 3.28 82.63 3.51ZM85.08 8.19C85.08 8.12 85.08 8.08 85.19 8.08L85.67 8.08C86.28 8.08 86.93 8.09 87.30 8.22C88.17 8.51 88.49 9.16 88.49 10.14C88.49 11.17 88.03 12.18 86.02 12.18L85.18 12.18C85.09 12.18 85.08 9.02 85.08 8.19ZM85.08 7.59L85.08 6.92C85.08 5.87 85.09 3.71 85.13 3.68C85.19 3.65 85.50 3.63 85.71 3.63C87.12 3.63 88.14 4.41 88.14 5.77C88.14 6.92 87.42 7.46 86.79 7.66C86.70 7.69 86.60 7.70 86.52 7.70C86.44 7.70 86.30 7.69 86.06 7.69L85.26 7.69C85.08 7.69 85.08 7.67 85.08 7.59ZM107.58 12.39C107.58 12.63 107.58 12.68 107.77 12.68C107.94 12.68 108.26 12.64 108.84 12.64C109.45 12.64 110.00 12.68 110.15 12.68C110.32 12.68 110.32 12.61 110.32 12.40C110.32 12.24 110.32 12.18 110.15 12.18L109.07 12.18C109.07 12.18 109.06 12.18 109.06 12.17C109.07 11.87 109.84 9.90 110.19 9.02C110.26 8.83 110.28 8.79 110.49 8.79L113.32 8.79C113.46 8.79 113.46 8.81 113.53 9.03C113.79 9.77 114.51 11.89 114.51 12.17C114.51 12.18 114.49 12.18 114.49 12.18L113.72 12.18C113.50 12.18 113.48 12.19 113.48 12.39C113.48 12.63 113.50 12.68 113.67 12.68C113.99 12.68 114.86 12.64 115.28 12.64C115.70 12.64 116.37 12.68 116.58 12.68C116.72 12.68 116.73 12.61 116.73 12.40C116.73 12.24 116.72 12.18 116.58 12.18L116.09 12.18C115.99 12.18 114.97 9.34 114.41 7.78L112.73 3.07C112.71 3.00 112.64 2.94 112.56 2.94C112.43 2.94 112.34 3.16 112.25 3.35C112.10 3.71 111.86 3.84 111.75 4.13L110.26 7.57C110.08 8.01 108.37 12.18 108.25 12.18L107.83 12.18C107.60 12.18 107.58 12.19 107.58 12.39ZM110.47 8.33C110.47 8.30 110.50 8.23 110.54 8.13L111.92 4.77C111.96 4.66 111.99 4.61 112.01 4.61C112.03 4.61 112.04 4.63 112.08 4.77L113.25 8.18C113.27 8.25 113.29 8.29 113.29 8.32C113.29 8.36 113.26 8.37 113.16 8.37L110.66 8.37C110.47 8.37 110.47 8.34 110.47 8.33ZM124.49 12.39C124.49 12.63 124.50 12.68 124.70 12.68C124.88 12.68 125.26 12.64 125.87 12.64C126.50 12.64 127.06 12.68 127.39 12.68C127.55 12.68 127.55 12.61 127.55 12.40C127.55 12.24 127.55 12.18 127.39 12.18L126.18 12.18C126.14 12.18 126.13 11.54 126.13 10.79C126.13 9.46 126.14 7.48 126.14 5.99C126.14 5.25 126.14 4.84 126.15 4.28C126.15 4.02 126.22 4.14 126.35 4.28L133.24 12.66C133.32 12.75 133.41 12.89 133.52 12.89C133.63 12.89 133.70 12.77 133.70 12.54C133.70 12.39 133.87 6.65 133.88 4.48C133.88 4.06 133.91 3.70 133.94 3.70L134.57 3.70C134.79 3.70 134.85 3.68 134.85 3.49C134.85 3.25 134.85 3.19 134.65 3.19C134.46 3.19 134.02 3.23 133.46 3.23C132.85 3.23 132.05 3.19 131.95 3.19C131.78 3.19 131.78 3.26 131.78 3.47C131.78 3.64 131.78 3.70 131.95 3.70L133.25 3.70C133.27 3.70 133.27 4.33 133.27 4.44C133.27 5.85 133.29 8.33 133.29 9.70L133.29 10.29C133.29 10.57 133.28 10.65 133.06 10.37L127.37 3.39C127.26 3.25 127.23 3.19 127.06 3.19C126.98 3.19 126.60 3.23 126.29 3.23C126 3.23 124.92 3.19 124.73 3.19C124.56 3.19 124.53 3.26 124.53 3.47C124.53 3.64 124.56 3.70 124.73 3.70L125.64 3.70C125.64 4.17 125.59 8.53 125.52 10.79C125.50 11.69 125.51 12.18 125.40 12.18L124.75 12.18C124.53 12.18 124.49 12.19 124.49 12.39ZM142.81 12.46C142.81 12.63 142.83 12.70 143.01 12.70C143.16 12.70 144.40 12.64 144.79 12.64C145.64 12.64 146.52 12.70 147.38 12.70C150.00 12.70 152.39 11.07 152.39 7.91C152.39 4.89 150.05 3.07 147.01 3.07C146.45 3.07 145.19 3.23 144.16 3.23C143.68 3.23 143.22 3.22 143.16 3.22C142.98 3.22 142.97 3.32 142.97 3.49C142.97 3.68 143.04 3.70 143.16 3.70L144.13 3.67C144.16 3.67 144.16 4.20 144.16 4.72C144.16 5.91 144.07 12.21 143.99 12.21L143.09 12.21C142.91 12.21 142.81 12.22 142.81 12.46ZM145.39 11.40C145.39 9.46 145.39 7.52 145.40 5.60C145.40 5.03 145.45 3.61 145.49 3.60C145.78 3.53 146.37 3.51 146.72 3.51C149.28 3.51 150.89 5.75 150.89 7.73C150.89 8.95 150.85 12.25 146.17 12.25C145.91 12.25 145.50 12.25 145.40 12.21C145.39 12.19 145.39 11.79 145.39 11.40ZM170.51 5.77C170.51 9.07 175.49 8.20 175.49 10.65C175.49 11.59 174.65 12.31 173.67 12.31C172.84 12.31 171.25 11.83 171.22 11.47L171.14 10.15C171.12 9.97 171.05 9.91 170.87 9.91L170.80 9.91C170.59 9.91 170.59 10.00 170.59 10.12C170.59 10.32 170.70 11.66 170.73 12.17C170.74 12.38 172.00 12.85 173.54 12.85C175.11 12.85 176.72 11.87 176.72 10.11C176.72 6.79 171.75 7.87 171.75 5.32C171.75 4.31 172.54 3.56 173.57 3.56C174.59 3.56 175.69 4.58 175.69 4.89C175.69 5.01 175.64 5.73 175.64 5.78C175.64 5.92 175.69 5.99 175.95 5.99C176.19 5.99 176.20 5.94 176.20 5.75C176.20 5.04 176.29 3.68 176.29 3.53C176.29 3.30 176.25 3.29 175.98 3.29C175.76 3.29 175.74 3.32 175.73 3.53C175.73 3.61 175.71 3.78 175.67 3.78C175.62 3.78 175.53 3.74 175.46 3.68C174.66 3.14 174.05 3.08 173.54 3.08C172.02 3.08 170.51 4.17 170.51 5.77ZM184.62 8.15C184.62 11.17 186.96 12.80 189.21 12.80C192.00 12.80 193.97 10.89 193.97 8.06C193.97 5.33 192.22 3.11 189.42 3.11C186.82 3.11 184.62 5.10 184.62 8.15ZM186.02 7.77C186.02 5.64 187.31 3.58 189.28 3.58C191.52 3.58 192.60 5.81 192.60 7.94C192.60 10.08 191.49 12.32 189.22 12.32C187.24 12.32 186.02 10.28 186.02 7.77ZM202.08 12.39C202.08 12.63 202.10 12.68 202.30 12.68C202.62 12.68 203.59 12.64 204.01 12.64C204.43 12.64 208.78 12.68 209.10 12.68C209.37 12.68 209.44 12.66 209.45 12.49C209.51 12.08 209.75 10.72 209.75 10.60C209.75 10.47 209.59 10.44 209.43 10.43C209.33 10.42 209.24 10.46 209.23 10.56L209.06 11.76C209.02 12.05 209.01 12.03 208.78 12.04C208.63 12.05 206.12 12.12 204.69 12.12C204.65 12.12 204.61 11.38 204.61 10.54L204.61 6.66C204.61 5.40 204.62 3.70 204.72 3.70L205.70 3.70C205.94 3.70 205.97 3.63 205.97 3.44C205.97 3.23 205.95 3.19 205.72 3.19C205.39 3.19 204.46 3.23 204.04 3.23C203.62 3.23 202.68 3.19 202.45 3.19C202.23 3.19 202.17 3.22 202.17 3.44C202.17 3.65 202.22 3.70 202.41 3.70L203.24 3.70C203.28 3.70 203.31 4.23 203.31 4.90L203.31 8.13C203.31 10.07 203.28 12.18 203.20 12.18L202.36 12.18C202.13 12.18 202.08 12.21 202.08 12.39ZM215.96 3.51C215.96 3.75 216.06 3.77 216.23 3.77L216.66 3.77C216.75 3.77 219.53 10.99 219.58 11.07C220.07 12.18 220.16 12.99 220.37 12.99C220.64 12.99 220.70 12.67 220.98 12.26C221.13 12.04 221.21 12.01 221.37 11.66L224.60 4.06C224.71 3.81 224.70 3.77 225.06 3.77C225.29 3.77 225.36 3.75 225.36 3.56C225.36 3.32 225.32 3.26 225.12 3.26C224.98 3.26 224.45 3.30 224.03 3.30C223.61 3.30 222.78 3.26 222.56 3.26C222.36 3.26 222.31 3.29 222.31 3.51C222.31 3.75 222.43 3.77 222.60 3.77L223.59 3.77C223.66 3.77 223.68 3.81 223.68 3.95C223.68 4.63 222.00 8.72 221.27 10.63C221.13 10.99 221.05 11.17 221.00 11.17C220.96 11.17 220.86 10.98 220.72 10.60C220.15 9.10 219.02 6.01 218.50 4.49C218.41 4.27 218.33 3.93 218.33 3.79L218.33 3.77L219.31 3.77C219.53 3.77 219.60 3.75 219.60 3.56C219.60 3.32 219.56 3.26 219.37 3.26C219.04 3.26 217.97 3.30 217.55 3.30C217.13 3.30 216.41 3.26 216.23 3.26C216.05 3.26 215.96 3.28 215.96 3.51ZM232.97 12.39C232.97 12.63 233.00 12.68 233.20 12.68C233.52 12.68 234.49 12.64 234.91 12.64C235.33 12.64 239.83 12.68 240.16 12.68C240.28 12.68 240.44 12.66 240.44 12.49C240.44 12.07 240.48 11.23 240.48 10.53C240.48 10.39 240.32 10.39 240.20 10.39C240.09 10.39 239.96 10.39 239.96 10.51C239.95 11.06 239.95 11.41 239.92 11.76C239.89 12.01 239.89 12.04 239.79 12.04C239.64 12.04 237.01 12.08 235.51 12.08C235.44 12.08 235.40 10.11 235.35 8.26C235.35 8.06 235.40 8.09 235.54 8.09L237.82 8.09C238.52 8.09 238.55 8.20 238.55 8.30L238.55 9.00C238.55 9.14 238.73 9.14 238.84 9.14C238.94 9.14 239.06 9.13 239.06 9.02C239.06 8.83 239.04 8.33 239.04 7.83C239.04 7.32 239.06 6.83 239.06 6.71C239.06 6.59 238.92 6.58 238.83 6.58C238.71 6.58 238.55 6.59 238.55 6.72L238.55 7.45C238.55 7.62 238.10 7.63 237.82 7.63L235.48 7.63C235.37 7.63 235.35 7.63 235.35 7.45C235.34 6.75 235.33 6.06 235.33 5.46C235.33 5.12 235.33 3.71 235.41 3.71C236.64 3.71 239.15 3.75 239.15 3.81C239.15 3.99 239.11 4.83 239.11 4.89C239.11 5.04 239.18 5.10 239.36 5.10C239.55 5.10 239.62 5.08 239.62 4.94C239.62 3.85 239.68 3.36 239.68 3.09C239.68 2.91 239.60 2.90 239.40 2.90C239.20 2.90 239.20 2.95 239.18 3.11C239.16 3.25 239.23 3.25 238.32 3.25C237.71 3.25 235.56 3.29 234.79 3.29C234.30 3.29 233.37 3.25 233.27 3.25C233.14 3.25 233.09 3.30 233.09 3.49C233.09 3.72 233.16 3.74 233.32 3.74L233.98 3.74C234.04 3.74 234.11 4.79 234.11 5.71C234.11 5.80 234.16 8.27 234.16 9.83L234.16 11.17C234.16 11.84 234.14 12.18 234.11 12.18L233.25 12.18C233.03 12.18 232.97 12.21 232.97 12.39ZM258.24 3.51C258.24 3.75 258.29 3.79 258.50 3.79L259.42 3.77C259.48 3.77 259.48 4.47 259.48 5.24L259.48 5.96C259.48 7.70 259.46 12.18 259.35 12.18L258.68 12.18C258.45 12.18 258.38 12.19 258.38 12.39C258.38 12.63 258.40 12.68 258.59 12.68C258.72 12.68 259.70 12.64 260.12 12.64C260.54 12.64 261.41 12.68 261.73 12.68C261.90 12.68 261.93 12.61 261.93 12.40C261.93 12.24 261.90 12.18 261.73 12.18L260.74 12.18C260.69 12.18 260.68 10.60 260.68 9.58L260.68 8.65C260.68 8.57 260.68 8.54 260.78 8.54C261.17 8.54 261.49 8.58 262.00 8.58C263.98 8.58 265.38 7.83 265.38 6.01C265.38 4.09 263.90 3.22 261.98 3.22C261.66 3.22 260.57 3.29 260.15 3.29C259.91 3.29 258.72 3.26 258.50 3.26C258.31 3.26 258.24 3.28 258.24 3.51ZM260.69 8.05L260.69 4.40C260.69 4.05 260.71 3.70 260.75 3.68C260.88 3.67 261.04 3.67 261.18 3.67C262.84 3.67 264.10 4.47 264.10 5.80C264.10 7.57 262.77 8.19 261.18 8.19C260.93 8.19 260.69 8.16 260.69 8.05ZM273.14 3.51C273.14 3.72 273.21 3.79 273.41 3.79L274.22 3.77C274.32 3.77 274.36 6.61 274.36 8.55L274.36 10.42C274.36 11.30 274.34 12.18 274.30 12.18L273.70 12.18C273.48 12.18 273.41 12.19 273.41 12.39C273.41 12.63 273.45 12.68 273.64 12.68C273.77 12.68 274.60 12.64 275.02 12.64C275.44 12.64 276.21 12.68 276.53 12.68C276.70 12.68 276.72 12.61 276.72 12.40C276.72 12.24 276.70 12.18 276.53 12.18L275.72 12.18C275.65 12.18 275.56 9.18 275.56 8.37C275.56 8.30 275.56 8.26 275.67 8.26C276.07 8.26 276.67 8.27 276.96 8.27C279.20 8.32 279.34 10.00 279.34 11.68L279.34 12.49C279.34 12.61 279.40 12.64 279.50 12.64C279.50 12.64 280.94 12.68 281.41 12.68C281.58 12.68 281.64 12.64 281.64 12.53C281.64 12.24 281.58 12.18 281.43 12.18L280.78 12.18C280.69 12.18 280.66 12.14 280.63 11.31C280.55 8.99 279.17 8.34 278.26 8.05C278.12 8.01 278.15 8.01 278.26 7.95C278.85 7.69 280.17 6.94 280.17 5.63C280.17 3.63 278.47 3.21 277.07 3.21C276.75 3.21 275.46 3.29 275.04 3.29C274.62 3.29 273.64 3.26 273.42 3.26C273.24 3.26 273.14 3.28 273.14 3.51ZM275.56 7.80L275.56 4.40C275.56 4.05 275.59 3.68 275.63 3.68C275.84 3.65 276.12 3.65 276.35 3.65C277.65 3.65 278.89 4.47 278.89 5.82C278.89 6.99 278.35 7.57 277.69 7.88C277.65 7.90 277.61 7.90 277.54 7.90C277.06 7.88 276.35 7.88 275.74 7.87C275.58 7.87 275.56 7.85 275.56 7.80ZM289.04 8.15C289.04 11.17 291.38 12.80 293.64 12.80C296.42 12.80 298.40 10.89 298.40 8.06C298.40 5.33 296.65 3.11 293.85 3.11C291.24 3.11 289.04 5.10 289.04 8.15ZM290.44 7.77C290.44 5.64 291.73 3.58 293.71 3.58C295.95 3.58 297.02 5.81 297.02 7.94C297.02 10.08 295.92 12.32 293.65 12.32C291.66 12.32 290.44 10.28 290.44 7.77ZM306.50 3.51C306.50 3.75 306.59 3.79 306.75 3.79L307.61 3.77C307.66 3.77 307.72 5.52 307.72 7.11L307.72 11.63C307.72 11.93 307.71 12.18 307.68 12.18L306.95 12.18C306.73 12.18 306.66 12.19 306.66 12.39C306.66 12.63 306.68 12.68 306.88 12.68C307.01 12.68 307.96 12.64 308.38 12.64C308.56 12.64 309.08 12.67 309.72 12.67C311.28 12.67 313.68 12.43 313.68 10.23C313.68 8.27 311.86 7.94 311.18 7.84C311.09 7.83 311.08 7.83 311.08 7.81C311.08 7.80 311.12 7.78 311.19 7.76C311.84 7.52 313.28 6.90 313.28 5.54C313.28 3.81 311.81 3.25 310.13 3.25C309.55 3.25 308.95 3.29 308.41 3.29C307.99 3.29 306.98 3.26 306.75 3.26C306.57 3.26 306.50 3.28 306.50 3.51ZM308.95 8.19C308.95 8.12 308.95 8.08 309.06 8.08L309.54 8.08C310.16 8.08 310.80 8.09 311.18 8.22C312.05 8.51 312.37 9.16 312.37 10.14C312.37 11.17 311.91 12.18 309.89 12.18L309.05 12.18C308.97 12.18 308.95 9.02 308.95 8.19ZM308.95 7.59L308.95 6.92C308.95 5.87 308.97 3.71 309.01 3.68C309.06 3.65 309.37 3.63 309.58 3.63C311.00 3.63 312.02 4.41 312.02 5.77C312.02 6.92 311.29 7.46 310.66 7.66C310.58 7.69 310.48 7.70 310.39 7.70C310.31 7.70 310.17 7.69 309.93 7.69L309.13 7.69C308.95 7.69 308.95 7.67 308.95 7.59ZM321.79 12.39C321.79 12.63 321.82 12.68 322.01 12.68C322.34 12.68 323.30 12.64 323.72 12.64C324.14 12.64 328.50 12.68 328.82 12.68C329.08 12.68 329.15 12.66 329.17 12.49C329.22 12.08 329.46 10.72 329.46 10.60C329.46 10.47 329.31 10.44 329.14 10.43C329.04 10.42 328.96 10.46 328.94 10.56L328.78 11.76C328.73 12.05 328.72 12.03 328.50 12.04C328.34 12.05 325.84 12.12 324.41 12.12C324.37 12.12 324.32 11.38 324.32 10.54L324.32 6.66C324.32 5.40 324.34 3.70 324.44 3.70L325.42 3.70C325.65 3.70 325.68 3.63 325.68 3.44C325.68 3.23 325.67 3.19 325.43 3.19C325.11 3.19 324.17 3.23 323.75 3.23C323.33 3.23 322.39 3.19 322.17 3.19C321.94 3.19 321.89 3.22 321.89 3.44C321.89 3.65 321.93 3.70 322.13 3.70L322.95 3.70C322.99 3.70 323.02 4.23 323.02 4.90L323.02 8.13C323.02 10.07 322.99 12.18 322.91 12.18L322.07 12.18C321.85 12.18 321.79 12.21 321.79 12.39ZM337.08 12.39C337.08 12.63 337.11 12.68 337.30 12.68C337.62 12.68 338.59 12.64 339.01 12.64C339.43 12.64 343.94 12.68 344.26 12.68C344.39 12.68 344.54 12.66 344.54 12.49C344.54 12.07 344.58 11.23 344.58 10.53C344.58 10.39 344.43 10.39 344.30 10.39C344.19 10.39 344.06 10.39 344.06 10.51C344.05 11.06 344.05 11.41 344.02 11.76C343.99 12.01 343.99 12.04 343.90 12.04C343.74 12.04 341.11 12.08 339.61 12.08C339.54 12.08 339.50 10.11 339.46 8.26C339.46 8.06 339.50 8.09 339.64 8.09L341.92 8.09C342.62 8.09 342.65 8.20 342.65 8.30L342.65 9.00C342.65 9.14 342.83 9.14 342.94 9.14C343.04 9.14 343.17 9.13 343.17 9.02C343.17 8.83 343.14 8.33 343.14 7.83C343.14 7.32 343.17 6.83 343.17 6.71C343.17 6.59 343.03 6.58 342.93 6.58C342.82 6.58 342.65 6.59 342.65 6.72L342.65 7.45C342.65 7.62 342.20 7.63 341.92 7.63L339.58 7.63C339.47 7.63 339.46 7.63 339.46 7.45C339.44 6.75 339.43 6.06 339.43 5.46C339.43 5.12 339.43 3.71 339.51 3.71C340.75 3.71 343.25 3.75 343.25 3.81C343.25 3.99 343.21 4.83 343.21 4.89C343.21 5.04 343.28 5.10 343.46 5.10C343.66 5.10 343.73 5.08 343.73 4.94C343.73 3.85 343.78 3.36 343.78 3.09C343.78 2.91 343.70 2.90 343.50 2.90C343.31 2.90 343.31 2.95 343.28 3.11C343.27 3.25 343.34 3.25 342.43 3.25C341.81 3.25 339.67 3.29 338.90 3.29C338.41 3.29 337.47 3.25 337.37 3.25C337.25 3.25 337.19 3.30 337.19 3.49C337.19 3.72 337.26 3.74 337.43 3.74L338.09 3.74C338.14 3.74 338.21 4.79 338.21 5.71C338.21 5.80 338.27 8.27 338.27 9.83L338.27 11.17C338.27 11.84 338.24 12.18 338.21 12.18L337.36 12.18C337.13 12.18 337.08 12.21 337.08 12.39ZM352.48 12.39C352.48 12.63 352.51 12.68 352.70 12.68C352.94 12.68 353.44 12.64 353.86 12.64C354.28 12.64 354.77 12.68 355.10 12.68C355.26 12.68 355.29 12.61 355.29 12.40C355.29 12.24 355.26 12.18 355.10 12.18L354.13 12.18C354.07 12.18 354.06 11.54 354.06 10.79C354.06 8.96 354.10 6.13 354.17 4.28C354.20 3.88 354.23 3.91 354.37 4.27L357.63 12.32C357.73 12.54 357.80 12.74 357.91 12.74C358.01 12.74 358.08 12.63 358.16 12.45C358.50 11.79 358.68 11.75 358.95 11.09L361.54 4.47C361.66 4.16 361.70 4.02 361.72 4.47C361.75 5.66 361.79 8.47 361.79 9.74C361.79 10.99 361.75 12.18 361.69 12.18L361.06 12.18C360.84 12.18 360.77 12.19 360.77 12.39C360.77 12.63 360.79 12.68 360.99 12.68C361.19 12.68 361.89 12.64 362.49 12.64C362.91 12.64 363.66 12.68 363.99 12.68C364.15 12.68 364.18 12.61 364.18 12.40C364.18 12.22 364.13 12.18 363.96 12.18L363.23 12.18C363.12 12.18 363.02 8.44 363.02 6.03L363.02 4.77C363.02 4.17 363.05 3.77 363.09 3.70L363.75 3.70C363.97 3.70 364.01 3.68 364.01 3.49C364.01 3.25 364.00 3.19 363.80 3.19C363.48 3.19 362.80 3.23 362.38 3.23L361.70 3.23C361.48 3.23 361.45 3.29 361.34 3.58L358.60 10.72C358.51 10.95 358.48 11.02 358.37 10.74L355.43 3.40C355.36 3.22 355.31 3.19 355.17 3.19C355.08 3.19 354.59 3.23 354.28 3.23C353.78 3.23 352.93 3.19 352.73 3.19C352.59 3.19 352.59 3.26 352.59 3.47C352.59 3.64 352.59 3.70 352.73 3.70L353.43 3.70C353.70 3.70 353.70 3.72 353.70 3.84C353.70 4.82 353.49 9.94 353.44 10.79C353.40 11.55 353.40 12.18 353.35 12.18L352.77 12.18C352.55 12.18 352.48 12.19 352.48 12.39ZM372.29 5.77C372.29 9.07 377.27 8.20 377.27 10.65C377.27 11.59 376.43 12.31 375.45 12.31C374.63 12.31 373.03 11.83 373.00 11.47L372.92 10.15C372.90 9.97 372.83 9.91 372.65 9.91L372.58 9.91C372.37 9.91 372.37 10.00 372.37 10.12C372.37 10.32 372.48 11.66 372.51 12.17C372.53 12.38 373.79 12.85 375.33 12.85C376.89 12.85 378.50 11.87 378.50 10.11C378.50 6.79 373.53 7.87 373.53 5.32C373.53 4.31 374.32 3.56 375.35 3.56C376.38 3.56 377.47 4.58 377.47 4.89C377.47 5.01 377.43 5.73 377.43 5.78C377.43 5.92 377.47 5.99 377.73 5.99C377.97 5.99 377.99 5.94 377.99 5.75C377.99 5.04 378.07 3.68 378.07 3.53C378.07 3.30 378.03 3.29 377.76 3.29C377.54 3.29 377.52 3.32 377.51 3.53C377.51 3.61 377.50 3.78 377.45 3.78C377.40 3.78 377.31 3.74 377.24 3.68C376.45 3.14 375.83 3.08 375.33 3.08C373.80 3.08 372.29 4.17 372.29 5.77ZM396.00 5.01C396.00 5.17 396.19 5.17 396.31 5.17C396.47 5.17 396.51 5.15 396.52 4.97L396.63 3.89C396.65 3.81 397.19 3.75 397.95 3.75L399.94 3.75C399.99 3.75 400.02 4.35 400.02 4.97C400.02 6.43 399.97 12.18 399.84 12.18L398.97 12.18C398.75 12.18 398.71 12.19 398.71 12.39C398.71 12.63 398.72 12.68 398.92 12.68C399.24 12.68 400.22 12.64 400.64 12.64C401.06 12.64 402.00 12.68 402.32 12.68C402.49 12.68 402.51 12.61 402.51 12.40C402.51 12.24 402.49 12.18 402.32 12.18L401.32 12.18C401.30 12.18 401.30 11.76 401.30 11.31C401.30 9.56 401.38 5.96 401.38 5.92C401.39 5.18 401.39 3.75 401.49 3.75L403.10 3.75C403.82 3.75 404.64 3.78 404.64 3.85C404.64 3.99 404.60 4.90 404.60 4.97C404.60 5.12 404.67 5.17 404.85 5.17C405.05 5.17 405.12 5.17 405.12 5.03C405.12 3.93 405.17 3.40 405.17 3.14C405.17 2.94 405.09 2.94 404.89 2.94C404.74 2.94 404.68 2.98 404.67 3.16C404.67 3.23 404.03 3.28 403.19 3.28L398.19 3.28C397.53 3.28 396.72 3.28 396.72 3.21L396.72 3.07C396.72 2.94 396.59 2.94 396.49 2.94C396.27 2.94 396.24 3.00 396.23 3.19C396.17 3.89 396.00 4.97 396.00 5.01ZM412.44 8.15C412.44 11.17 414.78 12.80 417.03 12.80C419.82 12.80 421.79 10.89 421.79 8.06C421.79 5.33 420.04 3.11 417.24 3.11C414.64 3.11 412.44 5.10 412.44 8.15ZM413.84 7.77C413.84 5.64 415.13 3.58 417.10 3.58C419.34 3.58 420.42 5.81 420.42 7.94C420.42 10.08 419.31 12.32 417.05 12.32C415.06 12.32 413.84 10.28 413.84 7.77ZM439.28 3.51C439.28 3.75 439.39 3.77 439.56 3.77L440.06 3.77C440.15 3.77 442.29 10.99 442.32 11.07C442.67 12.14 442.78 12.99 443.09 12.99C443.31 12.99 443.41 12.67 443.69 12.26C443.84 12.05 443.94 12.01 444.08 11.66L446.07 6.45C446.14 6.29 446.17 6.20 446.19 6.20C446.22 6.20 446.25 6.29 446.29 6.45C446.89 8.51 447.57 11.03 447.58 11.07C447.93 12.14 448.04 12.99 448.35 12.99C448.57 12.99 448.67 12.67 448.95 12.26C449.11 12.05 449.20 12.01 449.34 11.66L452.44 4.06C452.54 3.81 452.54 3.77 452.90 3.77C453.14 3.77 453.19 3.71 453.19 3.53C453.19 3.32 453.15 3.26 452.96 3.26C452.82 3.26 452.51 3.30 452.00 3.30C451.26 3.30 450.76 3.26 450.56 3.26C450.38 3.26 450.28 3.28 450.28 3.51C450.28 3.75 450.39 3.77 450.56 3.77L451.47 3.77C451.54 3.77 451.56 3.81 451.56 3.95C451.56 4.63 449.96 8.72 449.25 10.63C449.11 10.99 449.04 11.17 448.99 11.17C448.94 11.17 448.88 10.99 448.76 10.60C448.67 10.30 447.75 7.18 447.22 5.22C447.17 5.05 446.96 4.17 446.96 3.85C446.96 3.81 446.96 3.79 446.98 3.77L447.86 3.77C448.04 3.77 448.14 3.75 448.14 3.56C448.14 3.32 448.10 3.26 447.90 3.26C447.58 3.26 446.64 3.30 446.22 3.30C445.80 3.30 444.89 3.26 444.67 3.26C444.49 3.26 444.39 3.28 444.39 3.51C444.39 3.75 444.50 3.77 444.67 3.77L445.47 3.77C445.51 3.77 445.69 4.27 445.84 4.83C445.90 5.05 445.94 5.15 445.94 5.25C445.94 5.31 445.94 5.38 445.90 5.49L443.90 10.60C443.80 10.82 443.77 10.95 443.73 10.95C443.69 10.95 443.66 10.84 443.58 10.60C443.49 10.32 442.48 7.27 441.88 5.22C441.84 5.08 441.52 3.96 441.50 3.85C441.52 3.77 441.56 3.77 441.60 3.77L442.30 3.77C442.53 3.77 442.60 3.75 442.60 3.56C442.60 3.32 442.55 3.26 442.36 3.26C442.04 3.26 441.32 3.30 440.90 3.30C440.48 3.30 439.78 3.26 439.56 3.26C439.38 3.26 439.28 3.28 439.28 3.51ZM460.32 8.15C460.32 11.17 462.66 12.80 464.91 12.80C467.70 12.80 469.67 10.89 469.67 8.06C469.67 5.33 467.92 3.11 465.12 3.11C462.52 3.11 460.32 5.10 460.32 8.15ZM461.72 7.77C461.72 5.64 463.01 3.58 464.98 3.58C467.22 3.58 468.30 5.81 468.30 7.94C468.30 10.08 467.19 12.32 464.93 12.32C462.94 12.32 461.72 10.28 461.72 7.77ZM477.78 3.51C477.78 3.72 477.85 3.79 478.04 3.79L478.86 3.77C478.95 3.77 479.00 6.61 479.00 8.55L479.00 10.42C479.00 11.30 478.98 12.18 478.94 12.18L478.34 12.18C478.11 12.18 478.04 12.19 478.04 12.39C478.04 12.63 478.09 12.68 478.28 12.68C478.41 12.68 479.23 12.64 479.65 12.64C480.07 12.64 480.84 12.68 481.17 12.68C481.33 12.68 481.36 12.61 481.36 12.40C481.36 12.24 481.33 12.18 481.17 12.18L480.35 12.18C480.28 12.18 480.20 9.18 480.20 8.37C480.20 8.30 480.20 8.26 480.31 8.26C480.70 8.26 481.31 8.27 481.60 8.27C483.84 8.32 483.98 10.00 483.98 11.68L483.98 12.49C483.98 12.61 484.04 12.64 484.13 12.64C484.13 12.64 485.58 12.68 486.05 12.68C486.22 12.68 486.28 12.64 486.28 12.53C486.28 12.24 486.22 12.18 486.07 12.18L485.42 12.18C485.32 12.18 485.30 12.14 485.27 11.31C485.18 8.99 483.81 8.34 482.90 8.05C482.76 8.01 482.79 8.01 482.90 7.95C483.49 7.69 484.81 6.94 484.81 5.63C484.81 3.63 483.11 3.21 481.71 3.21C481.39 3.21 480.10 3.29 479.68 3.29C479.26 3.29 478.28 3.26 478.06 3.26C477.88 3.26 477.78 3.28 477.78 3.51ZM480.20 7.80L480.20 4.40C480.20 4.05 480.23 3.68 480.27 3.68C480.48 3.65 480.76 3.65 480.98 3.65C482.29 3.65 483.53 4.47 483.53 5.82C483.53 6.99 482.99 7.57 482.33 7.88C482.29 7.90 482.24 7.90 482.17 7.90C481.70 7.88 480.98 7.88 480.38 7.87C480.21 7.87 480.20 7.85 480.20 7.80ZM493.75 12.39C493.75 12.63 493.78 12.68 493.98 12.68C494.30 12.68 495.26 12.64 495.68 12.64C496.10 12.64 500.46 12.68 500.78 12.68C501.05 12.68 501.12 12.66 501.13 12.49C501.19 12.08 501.42 10.72 501.42 10.60C501.42 10.47 501.27 10.44 501.10 10.43C501.00 10.42 500.92 10.46 500.91 10.56L500.74 11.76C500.70 12.05 500.68 12.03 500.46 12.04C500.30 12.05 497.80 12.12 496.37 12.12C496.33 12.12 496.29 11.38 496.29 10.54L496.29 6.66C496.29 5.40 496.30 3.70 496.40 3.70L497.38 3.70C497.62 3.70 497.64 3.63 497.64 3.44C497.64 3.23 497.63 3.19 497.39 3.19C497.07 3.19 496.13 3.23 495.71 3.23C495.29 3.23 494.35 3.19 494.13 3.19C493.91 3.19 493.85 3.22 493.85 3.44C493.85 3.65 493.89 3.70 494.09 3.70L494.91 3.70C494.96 3.70 494.98 4.23 494.98 4.90L494.98 8.13C494.98 10.07 494.96 12.18 494.87 12.18L494.03 12.18C493.81 12.18 493.75 12.21 493.75 12.39ZM508.97 12.46C508.97 12.63 508.98 12.70 509.17 12.70C509.32 12.70 510.55 12.64 510.94 12.64C511.80 12.64 512.68 12.70 513.53 12.70C516.15 12.70 518.55 11.07 518.55 7.91C518.55 4.89 516.21 3.07 513.17 3.07C512.61 3.07 511.35 3.23 510.31 3.23C509.84 3.23 509.38 3.22 509.32 3.22C509.14 3.22 509.12 3.32 509.12 3.49C509.12 3.68 509.19 3.70 509.32 3.70L510.29 3.67C510.31 3.67 510.31 4.20 510.31 4.72C510.31 5.91 510.23 12.21 510.15 12.21L509.25 12.21C509.07 12.21 508.97 12.22 508.97 12.46ZM511.55 11.40C511.55 9.46 511.55 7.52 511.56 5.60C511.56 5.03 511.60 3.61 511.64 3.60C511.94 3.53 512.53 3.51 512.88 3.51C515.44 3.51 517.05 5.75 517.05 7.73C517.05 8.95 517.01 12.25 512.33 12.25C512.06 12.25 511.66 12.25 511.56 12.21C511.55 12.19 511.55 11.79 511.55 11.40ZM526.51 5.45C526.51 5.56 526.54 5.68 526.72 5.68C526.95 5.68 526.93 5.60 527.00 5.39C527.07 5.15 527.45 3.98 527.56 3.53C527.58 3.46 527.59 3.37 527.59 3.32C527.59 3.09 527.44 2.93 527.14 2.93C526.78 2.93 526.68 3.14 526.65 3.37C526.61 3.68 526.51 5.43 526.51 5.45ZM535.70 5.77C535.70 9.07 540.68 8.20 540.68 10.65C540.68 11.59 539.84 12.31 538.86 12.31C538.03 12.31 536.44 11.83 536.41 11.47L536.33 10.15C536.31 9.97 536.24 9.91 536.06 9.91L535.99 9.91C535.78 9.91 535.78 10.00 535.78 10.12C535.78 10.32 535.89 11.66 535.92 12.17C535.93 12.38 537.19 12.85 538.73 12.85C540.30 12.85 541.91 11.87 541.91 10.11C541.91 6.79 536.94 7.87 536.94 5.32C536.94 4.31 537.73 3.56 538.76 3.56C539.78 3.56 540.88 4.58 540.88 4.89C540.88 5.01 540.83 5.73 540.83 5.78C540.83 5.92 540.88 5.99 541.14 5.99C541.38 5.99 541.39 5.94 541.39 5.75C541.39 5.04 541.48 3.68 541.48 3.53C541.48 3.30 541.44 3.29 541.17 3.29C540.95 3.29 540.93 3.32 540.92 3.53C540.92 3.61 540.90 3.78 540.86 3.78C540.81 3.78 540.72 3.74 540.65 3.68C539.85 3.14 539.24 3.08 538.73 3.08C537.21 3.08 535.70 4.17 535.70 5.77ZM559.68 12.39C559.68 12.63 559.71 12.68 559.90 12.68C560.22 12.68 561.19 12.64 561.61 12.64C562.03 12.64 566.54 12.68 566.86 12.68C566.99 12.68 567.14 12.66 567.14 12.49C567.14 12.07 567.18 11.23 567.18 10.53C567.18 10.39 567.03 10.39 566.90 10.39C566.79 10.39 566.66 10.39 566.66 10.51C566.65 11.06 566.65 11.41 566.62 11.76C566.59 12.01 566.59 12.04 566.50 12.04C566.34 12.04 563.71 12.08 562.21 12.08C562.14 12.08 562.10 10.11 562.06 8.26C562.06 8.06 562.10 8.09 562.24 8.09L564.52 8.09C565.22 8.09 565.25 8.20 565.25 8.30L565.25 9.00C565.25 9.14 565.43 9.14 565.54 9.14C565.64 9.14 565.77 9.13 565.77 9.02C565.77 8.83 565.74 8.33 565.74 7.83C565.74 7.32 565.77 6.83 565.77 6.71C565.77 6.59 565.63 6.58 565.53 6.58C565.42 6.58 565.25 6.59 565.25 6.72L565.25 7.45C565.25 7.62 564.80 7.63 564.52 7.63L562.18 7.63C562.07 7.63 562.06 7.63 562.06 7.45C562.04 6.75 562.03 6.06 562.03 5.46C562.03 5.12 562.03 3.71 562.11 3.71C563.35 3.71 565.85 3.75 565.85 3.81C565.85 3.99 565.81 4.83 565.81 4.89C565.81 5.04 565.88 5.10 566.06 5.10C566.26 5.10 566.33 5.08 566.33 4.94C566.33 3.85 566.38 3.36 566.38 3.09C566.38 2.91 566.30 2.90 566.10 2.90C565.91 2.90 565.91 2.95 565.88 3.11C565.87 3.25 565.94 3.25 565.03 3.25C564.41 3.25 562.27 3.29 561.50 3.29C561.01 3.29 560.07 3.25 559.97 3.25C559.85 3.25 559.79 3.30 559.79 3.49C559.79 3.72 559.86 3.74 560.03 3.74L560.69 3.74C560.74 3.74 560.81 4.79 560.81 5.71C560.81 5.80 560.87 8.27 560.87 9.83L560.87 11.17C560.87 11.84 560.84 12.18 560.81 12.18L559.96 12.18C559.73 12.18 559.68 12.21 559.68 12.39ZM575.15 12.39C575.15 12.63 575.16 12.68 575.36 12.68C575.54 12.68 575.92 12.64 576.53 12.64C577.16 12.64 577.72 12.68 578.05 12.68C578.21 12.68 578.21 12.61 578.21 12.40C578.21 12.24 578.21 12.18 578.05 12.18L576.84 12.18C576.80 12.18 576.79 11.54 576.79 10.79C576.79 9.46 576.80 7.48 576.80 5.99C576.80 5.25 576.80 4.84 576.81 4.28C576.81 4.02 576.88 4.14 577.01 4.28L583.90 12.66C583.98 12.75 584.07 12.89 584.18 12.89C584.29 12.89 584.36 12.77 584.36 12.54C584.36 12.39 584.53 6.65 584.54 4.48C584.54 4.06 584.57 3.70 584.60 3.70L585.23 3.70C585.45 3.70 585.51 3.68 585.51 3.49C585.51 3.25 585.51 3.19 585.31 3.19C585.12 3.19 584.68 3.23 584.12 3.23C583.51 3.23 582.71 3.19 582.61 3.19C582.44 3.19 582.44 3.26 582.44 3.47C582.44 3.64 582.44 3.70 582.61 3.70L583.91 3.70C583.93 3.70 583.93 4.33 583.93 4.44C583.93 5.85 583.95 8.33 583.95 9.70L583.95 10.29C583.95 10.57 583.94 10.65 583.72 10.37L578.03 3.39C577.92 3.25 577.89 3.19 577.72 3.19C577.64 3.19 577.26 3.23 576.95 3.23C576.66 3.23 575.58 3.19 575.39 3.19C575.22 3.19 575.19 3.26 575.19 3.47C575.19 3.64 575.22 3.70 575.39 3.70L576.30 3.70C576.30 4.17 576.25 8.53 576.18 10.79C576.16 11.69 576.17 12.18 576.06 12.18L575.41 12.18C575.19 12.18 575.15 12.19 575.15 12.39ZM593.47 12.46C593.47 12.63 593.49 12.70 593.67 12.70C593.82 12.70 595.06 12.64 595.45 12.64C596.30 12.64 597.18 12.70 598.04 12.70C600.66 12.70 603.05 11.07 603.05 7.91C603.05 4.89 600.71 3.07 597.67 3.07C597.11 3.07 595.85 3.23 594.82 3.23C594.34 3.23 593.88 3.22 593.82 3.22C593.64 3.22 593.63 3.32 593.63 3.49C593.63 3.68 593.70 3.70 593.82 3.70L594.79 3.67C594.82 3.67 594.82 4.20 594.82 4.72C594.82 5.91 594.73 12.21 594.65 12.21L593.75 12.21C593.57 12.21 593.47 12.22 593.47 12.46ZM596.05 11.40C596.05 9.46 596.05 7.52 596.06 5.60C596.06 5.03 596.11 3.61 596.15 3.60C596.44 3.53 597.03 3.51 597.38 3.51C599.94 3.51 601.55 5.75 601.55 7.73C601.55 8.95 601.51 12.25 596.83 12.25C596.57 12.25 596.16 12.25 596.06 12.21C596.05 12.19 596.05 11.79 596.05 11.40ZM611.02 12.07C611.02 12.31 611.46 12.75 611.88 12.75C612.07 12.75 612.51 12.35 612.51 11.90C612.51 11.51 611.94 11.20 611.67 11.20C611.41 11.20 611.02 11.76 611.02 12.07Z"></path></g></svg>