<svg data-v-fde0c5aa="" xmlns="http://www.w3.org/2000/svg" viewBox="0 0 300 300" class="iconLeft"><!----><defs data-v-fde0c5aa=""><!----></defs><rect data-v-fde0c5aa="" fill="#F4E8E8" x="0" y="0" width="300px" height="300px" class="logo-background-square"></rect><defs data-v-fde0c5aa=""><!----></defs><g data-v-fde0c5aa="" id="7c06a988-f310-4ffe-8013-ad4d5e7a77ec" fill="#FB750D" transform="matrix(1.5043604296665867,0,0,1.5043604296665867,80.39440455761778,136.14484002671645)"><path d="M3.78 3.25L3.78 3.25L3.78 3.25Q5.82 3.25 6.92 4.03L6.92 4.03L6.92 4.03Q8.02 4.80 8.02 6.34L8.02 6.34L8.02 6.34Q8.02 7.18 7.72 7.78L7.72 7.78L7.72 7.78Q7.42 8.37 6.85 8.74L6.85 8.74L6.85 8.74Q6.29 9.11 5.47 9.28L5.47 9.28L5.47 9.28Q4.66 9.45 3.64 9.45L3.64 9.45L2.56 9.45L2.56 13.05L1.20 13.05L1.20 3.49L1.20 3.49Q1.78 3.35 2.48 3.30L2.48 3.30L2.48 3.30Q3.19 3.25 3.78 3.25ZM3.89 4.44L3.89 4.44L3.89 4.44Q3.02 4.44 2.56 4.48L2.56 4.48L2.56 8.29L3.58 8.29L3.58 8.29Q4.28 8.29 4.84 8.20L4.84 8.20L4.84 8.20Q5.40 8.11 5.79 7.89L5.79 7.89L5.79 7.89Q6.17 7.67 6.38 7.29L6.38 7.29L6.38 7.29Q6.59 6.92 6.59 6.33L6.59 6.33L6.59 6.33Q6.59 5.77 6.38 5.40L6.38 5.40L6.38 5.40Q6.16 5.04 5.79 4.82L5.79 4.82L5.79 4.82Q5.42 4.61 4.93 4.52L4.93 4.52L4.93 4.52Q4.44 4.44 3.89 4.44ZM9.23 9.42L9.23 9.42L9.23 9.42Q9.23 8.46 9.51 7.74L9.51 7.74L9.51 7.74Q9.79 7.01 10.25 6.54L10.25 6.54L10.25 6.54Q10.71 6.06 11.31 5.82L11.31 5.82L11.31 5.82Q11.91 5.59 12.54 5.59L12.54 5.59L12.54 5.59Q14.01 5.59 14.80 6.50L14.80 6.50L14.80 6.50Q15.58 7.42 15.58 9.30L15.58 9.30L15.58 9.30Q15.58 9.38 15.58 9.51L15.58 9.51L15.58 9.51Q15.58 9.65 15.57 9.76L15.57 9.76L10.58 9.76L10.58 9.76Q10.67 10.89 11.24 11.48L11.24 11.48L11.24 11.48Q11.82 12.07 13.03 12.07L13.03 12.07L13.03 12.07Q13.72 12.07 14.19 11.95L14.19 11.95L14.19 11.95Q14.66 11.83 14.90 11.72L14.90 11.72L15.08 12.81L15.08 12.81Q14.84 12.94 14.25 13.08L14.25 13.08L14.25 13.08Q13.65 13.22 12.89 13.22L12.89 13.22L12.89 13.22Q11.94 13.22 11.25 12.93L11.25 12.93L11.25 12.93Q10.56 12.64 10.11 12.14L10.11 12.14L10.11 12.14Q9.66 11.63 9.44 10.94L9.44 10.94L9.44 10.94Q9.23 10.25 9.23 9.42ZM10.61 8.71L14.22 8.71L14.22 8.71Q14.24 7.83 13.78 7.26L13.78 7.26L13.78 7.26Q13.33 6.69 12.53 6.69L12.53 6.69L12.53 6.69Q12.08 6.69 11.74 6.87L11.74 6.87L11.74 6.87Q11.40 7.04 11.16 7.32L11.16 7.32L11.16 7.32Q10.92 7.60 10.79 7.97L10.79 7.97L10.79 7.97Q10.65 8.33 10.61 8.71L10.61 8.71ZM17.05 9.42L17.05 9.42L17.05 9.42Q17.05 8.46 17.33 7.74L17.33 7.74L17.33 7.74Q17.61 7.01 18.07 6.54L18.07 6.54L18.07 6.54Q18.54 6.06 19.14 5.82L19.14 5.82L19.14 5.82Q19.74 5.59 20.37 5.59L20.37 5.59L20.37 5.59Q21.84 5.59 22.62 6.50L22.62 6.50L22.62 6.50Q23.41 7.42 23.41 9.30L23.41 9.30L23.41 9.30Q23.41 9.38 23.41 9.51L23.41 9.51L23.41 9.51Q23.41 9.65 23.39 9.76L23.39 9.76L18.41 9.76L18.41 9.76Q18.49 10.89 19.07 11.48L19.07 11.48L19.07 11.48Q19.64 12.07 20.86 12.07L20.86 12.07L20.86 12.07Q21.55 12.07 22.02 11.95L22.02 11.95L22.02 11.95Q22.48 11.83 22.72 11.72L22.72 11.72L22.90 12.81L22.90 12.81Q22.67 12.94 22.07 13.08L22.07 13.08L22.07 13.08Q21.48 13.22 20.72 13.22L20.72 13.22L20.72 13.22Q19.77 13.22 19.08 12.93L19.08 12.93L19.08 12.93Q18.38 12.64 17.93 12.14L17.93 12.14L17.93 12.14Q17.49 11.63 17.27 10.94L17.27 10.94L17.27 10.94Q17.05 10.25 17.05 9.42ZM18.44 8.71L22.05 8.71L22.05 8.71Q22.06 7.83 21.61 7.26L21.61 7.26L21.61 7.26Q21.15 6.69 20.36 6.69L20.36 6.69L20.36 6.69Q19.91 6.69 19.57 6.87L19.57 6.87L19.57 6.87Q19.22 7.04 18.98 7.32L18.98 7.32L18.98 7.32Q18.75 7.60 18.61 7.97L18.61 7.97L18.61 7.97Q18.48 8.33 18.44 8.71L18.44 8.71ZM27.97 5.61L27.97 5.61L27.97 5.61Q28.14 5.61 28.36 5.63L28.36 5.63L28.36 5.63Q28.57 5.66 28.78 5.69L28.78 5.69L28.78 5.69Q28.99 5.73 29.17 5.76L29.17 5.76L29.17 5.76Q29.34 5.80 29.43 5.82L29.43 5.82L29.20 6.96L29.20 6.96Q29.05 6.90 28.69 6.83L28.69 6.83L28.69 6.83Q28.34 6.75 27.78 6.75L27.78 6.75L27.78 6.75Q27.41 6.75 27.05 6.83L27.05 6.83L27.05 6.83Q26.70 6.90 26.59 6.93L26.59 6.93L26.59 13.05L25.28 13.05L25.28 6.08L25.28 6.08Q25.75 5.91 26.43 5.76L26.43 5.76L26.43 5.76Q27.12 5.61 27.97 5.61ZM29.93 9.46L29.93 8.25L33.39 8.25L33.39 9.46L29.93 9.46ZM37.53 3.25L37.53 3.25L37.53 3.25Q39.58 3.25 40.68 4.03L40.68 4.03L40.68 4.03Q41.78 4.80 41.78 6.34L41.78 6.34L41.78 6.34Q41.78 7.18 41.48 7.78L41.48 7.78L41.48 7.78Q41.17 8.37 40.61 8.74L40.61 8.74L40.61 8.74Q40.04 9.11 39.23 9.28L39.23 9.28L39.23 9.28Q38.42 9.45 37.39 9.45L37.39 9.45L36.32 9.45L36.32 13.05L34.96 13.05L34.96 3.49L34.96 3.49Q35.53 3.35 36.24 3.30L36.24 3.30L36.24 3.30Q36.95 3.25 37.53 3.25ZM37.65 4.44L37.65 4.44L37.65 4.44Q36.78 4.44 36.32 4.48L36.32 4.48L36.32 8.29L37.34 8.29L37.34 8.29Q38.04 8.29 38.60 8.20L38.60 8.20L38.60 8.20Q39.16 8.11 39.54 7.89L39.54 7.89L39.54 7.89Q39.93 7.67 40.14 7.29L40.14 7.29L40.14 7.29Q40.35 6.92 40.35 6.33L40.35 6.33L40.35 6.33Q40.35 5.77 40.13 5.40L40.13 5.40L40.13 5.40Q39.91 5.04 39.54 4.82L39.54 4.82L39.54 4.82Q39.17 4.61 38.68 4.52L38.68 4.52L38.68 4.52Q38.19 4.44 37.65 4.44ZM46.07 5.61L46.07 5.61L46.07 5.61Q46.24 5.61 46.46 5.63L46.46 5.63L46.46 5.63Q46.68 5.66 46.89 5.69L46.89 5.69L46.89 5.69Q47.10 5.73 47.27 5.76L47.27 5.76L47.27 5.76Q47.45 5.80 47.53 5.82L47.53 5.82L47.31 6.96L47.31 6.96Q47.15 6.90 46.80 6.83L46.80 6.83L46.80 6.83Q46.44 6.75 45.88 6.75L45.88 6.75L45.88 6.75Q45.51 6.75 45.16 6.83L45.16 6.83L45.16 6.83Q44.80 6.90 44.69 6.93L44.69 6.93L44.69 13.05L43.39 13.05L43.39 6.08L43.39 6.08Q43.85 5.91 44.53 5.76L44.53 5.76L44.53 5.76Q45.22 5.61 46.07 5.61ZM55.22 9.41L55.22 9.41L55.22 9.41Q55.22 10.28 54.96 10.98L54.96 10.98L54.96 10.98Q54.71 11.68 54.26 12.18L54.26 12.18L54.26 12.18Q53.80 12.68 53.17 12.96L53.17 12.96L53.17 12.96Q52.54 13.23 51.80 13.23L51.80 13.23L51.80 13.23Q51.06 13.23 50.43 12.96L50.43 12.96L50.43 12.96Q49.80 12.68 49.34 12.18L49.34 12.18L49.34 12.18Q48.89 11.68 48.64 10.98L48.64 10.98L48.64 10.98Q48.38 10.28 48.38 9.41L48.38 9.41L48.38 9.41Q48.38 8.55 48.64 7.85L48.64 7.85L48.64 7.85Q48.89 7.14 49.34 6.64L49.34 6.64L49.34 6.64Q49.80 6.13 50.43 5.86L50.43 5.86L50.43 5.86Q51.06 5.59 51.80 5.59L51.80 5.59L51.80 5.59Q52.54 5.59 53.17 5.86L53.17 5.86L53.17 5.86Q53.80 6.13 54.26 6.64L54.26 6.64L54.26 6.64Q54.71 7.14 54.96 7.85L54.96 7.85L54.96 7.85Q55.22 8.55 55.22 9.41ZM53.86 9.41L53.86 9.41L53.86 9.41Q53.86 8.18 53.30 7.46L53.30 7.46L53.30 7.46Q52.75 6.73 51.80 6.73L51.80 6.73L51.80 6.73Q50.85 6.73 50.30 7.46L50.30 7.46L50.30 7.46Q49.74 8.18 49.74 9.41L49.74 9.41L49.74 9.41Q49.74 10.64 50.30 11.36L50.30 11.36L50.30 11.36Q50.85 12.08 51.80 12.08L51.80 12.08L51.80 12.08Q52.75 12.08 53.30 11.36L53.30 11.36L53.30 11.36Q53.86 10.64 53.86 9.41ZM61.61 12.63L61.61 12.32L61.61 12.32Q61.45 12.43 60.96 12.61L60.96 12.61L60.96 12.61Q60.48 12.78 59.84 12.78L59.84 12.78L59.84 12.78Q59.18 12.78 58.60 12.57L58.60 12.57L58.60 12.57Q58.02 12.36 57.58 11.92L57.58 11.92L57.58 11.92Q57.15 11.48 56.90 10.82L56.90 10.82L56.90 10.82Q56.64 10.16 56.64 9.25L56.64 9.25L56.64 9.25Q56.64 8.46 56.88 7.79L56.88 7.79L56.88 7.79Q57.12 7.13 57.58 6.64L57.58 6.64L57.58 6.64Q58.03 6.16 58.69 5.89L58.69 5.89L58.69 5.89Q59.35 5.61 60.17 5.61L60.17 5.61L60.17 5.61Q61.08 5.61 61.76 5.75L61.76 5.75L61.76 5.75Q62.44 5.88 62.90 5.99L62.90 5.99L62.90 12.49L62.90 12.49Q62.90 14.17 62.03 14.92L62.03 14.92L62.03 14.92Q61.17 15.68 59.40 15.68L59.40 15.68L59.40 15.68Q58.72 15.68 58.11 15.57L58.11 15.57L58.11 15.57Q57.50 15.46 57.05 15.30L57.05 15.30L57.29 14.17L57.29 14.17Q57.68 14.32 58.25 14.44L58.25 14.44L58.25 14.44Q58.81 14.56 59.43 14.56L59.43 14.56L59.43 14.56Q60.59 14.56 61.10 14.10L61.10 14.10L61.10 14.10Q61.61 13.64 61.61 12.63L61.61 12.63ZM61.60 11.17L61.60 6.92L61.60 6.92Q61.40 6.86 61.08 6.81L61.08 6.81L61.08 6.81Q60.75 6.76 60.19 6.76L60.19 6.76L60.19 6.76Q59.14 6.76 58.57 7.45L58.57 7.45L58.57 7.45Q58.00 8.13 58.00 9.27L58.00 9.27L58.00 9.27Q58.00 9.90 58.16 10.35L58.16 10.35L58.16 10.35Q58.32 10.79 58.60 11.09L58.60 11.09L58.60 11.09Q58.87 11.38 59.23 11.52L59.23 11.52L59.23 11.52Q59.58 11.66 59.96 11.66L59.96 11.66L59.96 11.66Q60.48 11.66 60.91 11.52L60.91 11.52L60.91 11.52Q61.35 11.37 61.60 11.17L61.60 11.17ZM67.83 5.61L67.83 5.61L67.83 5.61Q68.00 5.61 68.22 5.63L68.22 5.63L68.22 5.63Q68.43 5.66 68.64 5.69L68.64 5.69L68.64 5.69Q68.85 5.73 69.03 5.76L69.03 5.76L69.03 5.76Q69.20 5.80 69.29 5.82L69.29 5.82L69.06 6.96L69.06 6.96Q68.91 6.90 68.55 6.83L68.55 6.83L68.55 6.83Q68.19 6.75 67.63 6.75L67.63 6.75L67.63 6.75Q67.27 6.75 66.91 6.83L66.91 6.83L66.91 6.83Q66.56 6.90 66.44 6.93L66.44 6.93L66.44 13.05L65.14 13.05L65.14 6.08L65.14 6.08Q65.60 5.91 66.29 5.76L66.29 5.76L66.29 5.76Q66.98 5.61 67.83 5.61ZM73.01 12.11L73.01 12.11L73.01 12.11Q73.47 12.11 73.83 12.09L73.83 12.09L73.83 12.09Q74.19 12.07 74.42 12.01L74.42 12.01L74.42 9.84L74.42 9.84Q74.28 9.77 73.97 9.72L73.97 9.72L73.97 9.72Q73.65 9.67 73.21 9.67L73.21 9.67L73.21 9.67Q72.91 9.67 72.58 9.72L72.58 9.72L72.58 9.72Q72.25 9.76 71.98 9.89L71.98 9.89L71.98 9.89Q71.71 10.02 71.53 10.25L71.53 10.25L71.53 10.25Q71.34 10.49 71.34 10.86L71.34 10.86L71.34 10.86Q71.34 11.56 71.79 11.84L71.79 11.84L71.79 11.84Q72.24 12.11 73.01 12.11ZM72.90 5.59L72.90 5.59L72.90 5.59Q73.68 5.59 74.22 5.79L74.22 5.79L74.22 5.79Q74.76 5.99 75.09 6.36L75.09 6.36L75.09 6.36Q75.42 6.73 75.56 7.25L75.56 7.25L75.56 7.25Q75.70 7.76 75.70 8.37L75.70 8.37L75.70 12.92L75.70 12.92Q75.53 12.95 75.23 13.00L75.23 13.00L75.23 13.00Q74.93 13.05 74.55 13.09L74.55 13.09L74.55 13.09Q74.17 13.13 73.73 13.17L73.73 13.17L73.73 13.17Q73.29 13.20 72.86 13.20L72.86 13.20L72.86 13.20Q72.24 13.20 71.72 13.08L71.72 13.08L71.72 13.08Q71.20 12.95 70.83 12.68L70.83 12.68L70.83 12.68Q70.45 12.40 70.24 11.96L70.24 11.96L70.24 11.96Q70.03 11.51 70.03 10.88L70.03 10.88L70.03 10.88Q70.03 10.28 70.27 9.84L70.27 9.84L70.27 9.84Q70.52 9.41 70.94 9.14L70.94 9.14L70.94 9.14Q71.36 8.88 71.92 8.75L71.92 8.75L71.92 8.75Q72.48 8.62 73.09 8.62L73.09 8.62L73.09 8.62Q73.29 8.62 73.50 8.64L73.50 8.64L73.50 8.64Q73.71 8.67 73.90 8.70L73.90 8.70L73.90 8.70Q74.09 8.74 74.23 8.76L74.23 8.76L74.23 8.76Q74.37 8.79 74.42 8.81L74.42 8.81L74.42 8.44L74.42 8.44Q74.42 8.12 74.35 7.80L74.35 7.80L74.35 7.80Q74.28 7.49 74.10 7.25L74.10 7.25L74.10 7.25Q73.92 7 73.61 6.85L73.61 6.85L73.61 6.85Q73.29 6.71 72.79 6.71L72.79 6.71L72.79 6.71Q72.14 6.71 71.66 6.80L71.66 6.80L71.66 6.80Q71.18 6.89 70.94 6.99L70.94 6.99L70.78 5.91L70.78 5.91Q71.04 5.80 71.62 5.69L71.62 5.69L71.62 5.69Q72.21 5.59 72.90 5.59ZM77.85 13.05L77.85 5.98L77.85 5.98Q78.30 5.87 79.04 5.74L79.04 5.74L79.04 5.74Q79.77 5.61 80.74 5.61L80.74 5.61L80.74 5.61Q81.44 5.61 81.91 5.80L81.91 5.80L81.91 5.80Q82.39 5.99 82.71 6.36L82.71 6.36L82.71 6.36Q82.81 6.29 83.02 6.16L83.02 6.16L83.02 6.16Q83.23 6.03 83.54 5.92L83.54 5.92L83.54 5.92Q83.85 5.80 84.22 5.71L84.22 5.71L84.22 5.71Q84.60 5.61 85.04 5.61L85.04 5.61L85.04 5.61Q85.88 5.61 86.41 5.86L86.41 5.86L86.41 5.86Q86.94 6.10 87.24 6.55L87.24 6.55L87.24 6.55Q87.54 7 87.65 7.62L87.65 7.62L87.65 7.62Q87.75 8.23 87.75 8.96L87.75 8.96L87.75 13.05L86.45 13.05L86.45 9.24L86.45 9.24Q86.45 8.60 86.39 8.13L86.39 8.13L86.39 8.13Q86.32 7.67 86.15 7.36L86.15 7.36L86.15 7.36Q85.97 7.06 85.67 6.91L85.67 6.91L85.67 6.91Q85.37 6.76 84.90 6.76L84.90 6.76L84.90 6.76Q84.24 6.76 83.81 6.94L83.81 6.94L83.81 6.94Q83.38 7.11 83.23 7.25L83.23 7.25L83.23 7.25Q83.34 7.62 83.40 8.05L83.40 8.05L83.40 8.05Q83.45 8.48 83.45 8.96L83.45 8.96L83.45 13.05L82.15 13.05L82.15 9.24L82.15 9.24Q82.15 8.60 82.08 8.13L82.08 8.13L82.08 8.13Q82.01 7.67 81.84 7.36L81.84 7.36L81.84 7.36Q81.66 7.06 81.36 6.91L81.36 6.91L81.36 6.91Q81.06 6.76 80.60 6.76L80.60 6.76L80.60 6.76Q80.40 6.76 80.18 6.78L80.18 6.78L80.18 6.78Q79.95 6.79 79.75 6.81L79.75 6.81L79.75 6.81Q79.55 6.83 79.38 6.86L79.38 6.86L79.38 6.86Q79.21 6.89 79.16 6.90L79.16 6.90L79.16 13.05L77.85 13.05ZM89.91 13.05L89.91 5.98L89.91 5.98Q90.36 5.87 91.09 5.74L91.09 5.74L91.09 5.74Q91.83 5.61 92.79 5.61L92.79 5.61L92.79 5.61Q93.49 5.61 93.97 5.80L93.97 5.80L93.97 5.80Q94.44 5.99 94.77 6.36L94.77 6.36L94.77 6.36Q94.86 6.29 95.07 6.16L95.07 6.16L95.07 6.16Q95.28 6.03 95.59 5.92L95.59 5.92L95.59 5.92Q95.90 5.80 96.28 5.71L96.28 5.71L96.28 5.71Q96.66 5.61 97.09 5.61L97.09 5.61L97.09 5.61Q97.93 5.61 98.46 5.86L98.46 5.86L98.46 5.86Q98.99 6.10 99.30 6.55L99.30 6.55L99.30 6.55Q99.60 7 99.70 7.62L99.70 7.62L99.70 7.62Q99.81 8.23 99.81 8.96L99.81 8.96L99.81 13.05L98.50 13.05L98.50 9.24L98.50 9.24Q98.50 8.60 98.44 8.13L98.44 8.13L98.44 8.13Q98.38 7.67 98.20 7.36L98.20 7.36L98.20 7.36Q98.03 7.06 97.73 6.91L97.73 6.91L97.73 6.91Q97.43 6.76 96.95 6.76L96.95 6.76L96.95 6.76Q96.29 6.76 95.87 6.94L95.87 6.94L95.87 6.94Q95.44 7.11 95.28 7.25L95.28 7.25L95.28 7.25Q95.40 7.62 95.45 8.05L95.45 8.05L95.45 8.05Q95.51 8.48 95.51 8.96L95.51 8.96L95.51 13.05L94.21 13.05L94.21 9.24L94.21 9.24Q94.21 8.60 94.14 8.13L94.14 8.13L94.14 8.13Q94.07 7.67 93.89 7.36L93.89 7.36L93.89 7.36Q93.72 7.06 93.42 6.91L93.42 6.91L93.42 6.91Q93.11 6.76 92.65 6.76L92.65 6.76L92.65 6.76Q92.46 6.76 92.23 6.78L92.23 6.78L92.23 6.78Q92.01 6.79 91.81 6.81L91.81 6.81L91.81 6.81Q91.60 6.83 91.43 6.86L91.43 6.86L91.43 6.86Q91.27 6.89 91.21 6.90L91.21 6.90L91.21 13.05L89.91 13.05ZM103.26 5.77L103.26 13.05L101.96 13.05L101.96 5.77L103.26 5.77ZM102.61 4.45L102.61 4.45L102.61 4.45Q102.26 4.45 102.01 4.22L102.01 4.22L102.01 4.22Q101.77 3.99 101.77 3.60L101.77 3.60L101.77 3.60Q101.77 3.21 102.01 2.97L102.01 2.97L102.01 2.97Q102.26 2.74 102.61 2.74L102.61 2.74L102.61 2.74Q102.96 2.74 103.20 2.97L103.20 2.97L103.20 2.97Q103.45 3.21 103.45 3.60L103.45 3.60L103.45 3.60Q103.45 3.99 103.20 4.22L103.20 4.22L103.20 4.22Q102.96 4.45 102.61 4.45ZM105.50 13.05L105.50 5.98L105.50 5.98Q105.95 5.87 106.69 5.74L106.69 5.74L106.69 5.74Q107.44 5.61 108.40 5.61L108.40 5.61L108.40 5.61Q109.27 5.61 109.84 5.86L109.84 5.86L109.84 5.86Q110.42 6.10 110.76 6.54L110.76 6.54L110.76 6.54Q111.10 6.99 111.24 7.60L111.24 7.60L111.24 7.60Q111.38 8.22 111.38 8.96L111.38 8.96L111.38 13.05L110.08 13.05L110.08 9.24L110.08 9.24Q110.08 8.57 109.99 8.09L109.99 8.09L109.99 8.09Q109.90 7.62 109.69 7.32L109.69 7.32L109.69 7.32Q109.48 7.03 109.13 6.89L109.13 6.89L109.13 6.89Q108.78 6.76 108.26 6.76L108.26 6.76L108.26 6.76Q108.05 6.76 107.83 6.78L107.83 6.78L107.83 6.78Q107.60 6.79 107.40 6.81L107.40 6.81L107.40 6.81Q107.20 6.83 107.04 6.86L107.04 6.86L107.04 6.86Q106.88 6.89 106.81 6.90L106.81 6.90L106.81 13.05L105.50 13.05ZM118.10 12.63L118.10 12.32L118.10 12.32Q117.94 12.43 117.45 12.61L117.45 12.61L117.45 12.61Q116.97 12.78 116.33 12.78L116.33 12.78L116.33 12.78Q115.67 12.78 115.09 12.57L115.09 12.57L115.09 12.57Q114.51 12.36 114.07 11.92L114.07 11.92L114.07 11.92Q113.64 11.48 113.39 10.82L113.39 10.82L113.39 10.82Q113.13 10.16 113.13 9.25L113.13 9.25L113.13 9.25Q113.13 8.46 113.37 7.79L113.37 7.79L113.37 7.79Q113.61 7.13 114.07 6.64L114.07 6.64L114.07 6.64Q114.52 6.16 115.18 5.89L115.18 5.89L115.18 5.89Q115.84 5.61 116.66 5.61L116.66 5.61L116.66 5.61Q117.57 5.61 118.25 5.75L118.25 5.75L118.25 5.75Q118.93 5.88 119.39 5.99L119.39 5.99L119.39 12.49L119.39 12.49Q119.39 14.17 118.52 14.92L118.52 14.92L118.52 14.92Q117.66 15.68 115.89 15.68L115.89 15.68L115.89 15.68Q115.21 15.68 114.60 15.57L114.60 15.57L114.60 15.57Q113.99 15.46 113.54 15.30L113.54 15.30L113.78 14.17L113.78 14.17Q114.17 14.32 114.74 14.44L114.74 14.44L114.74 14.44Q115.30 14.56 115.92 14.56L115.92 14.56L115.92 14.56Q117.08 14.56 117.59 14.10L117.59 14.10L117.59 14.10Q118.10 13.64 118.10 12.63L118.10 12.63ZM118.09 11.17L118.09 6.92L118.09 6.92Q117.89 6.86 117.57 6.81L117.57 6.81L117.57 6.81Q117.24 6.76 116.68 6.76L116.68 6.76L116.68 6.76Q115.63 6.76 115.06 7.45L115.06 7.45L115.06 7.45Q114.49 8.13 114.49 9.27L114.49 9.27L114.49 9.27Q114.49 9.90 114.65 10.35L114.65 10.35L114.65 10.35Q114.81 10.79 115.09 11.09L115.09 11.09L115.09 11.09Q115.36 11.38 115.72 11.52L115.72 11.52L115.72 11.52Q116.07 11.66 116.45 11.66L116.45 11.66L116.45 11.66Q116.97 11.66 117.40 11.52L117.40 11.52L117.40 11.52Q117.84 11.37 118.09 11.17L118.09 11.17Z"></path></g><defs data-v-fde0c5aa=""><linearGradient data-v-fde0c5aa="" gradientTransform="rotate(25)" id="88949a41-0d3e-40e4-933d-3939a67f0d65" x1="0%" y1="0%" x2="100%" y2="0%"><stop data-v-fde0c5aa="" offset="0%" stop-color="#FC983D" stop-opacity="1"></stop><stop data-v-fde0c5aa="" offset="100%" stop-color="#FB750D" stop-opacity="1"></stop></linearGradient></defs><g data-v-fde0c5aa="" id="535659db-b82b-4898-aac4-5a6c2a31941a" stroke="none" fill="url(#88949a41-0d3e-40e4-933d-3939a67f0d65)" transform="matrix(0.065177761484266,0,0,0.065177761484266,37.91431163250349,133.3144930600279)"><path d="M296 264v144a8.01 8.01 0 0 1-8 8h-9.376a23.885 23.885 0 0 0 1.376-8V264a23.885 23.885 0 0 0-1.376-8H288a8.01 8.01 0 0 1 8 8zm-67.928 197.24a12 12 0 0 1-9.915 18.76h-38.701a27.934 27.934 0 0 0 2.423-16H200v-16h-25.59L163.5 432h44.635zM40 416a8.01 8.01 0 0 1-8-8V264a8.01 8.01 0 0 1 8-8h216a8.01 8.01 0 0 1 8 8v144a8.01 8.01 0 0 1-8 8zm372.072-178.76a12 12 0 0 1-9.915 18.76h-38.7a27.934 27.934 0 0 0 2.422-16H384v-16h-25.59L347.5 208h44.635zM224 192a8.01 8.01 0 0 1-8-8V40a8.01 8.01 0 0 1 8-8h216a8.01 8.01 0 0 1 8 8v144a8.01 8.01 0 0 1-8 8zm256-8a8.01 8.01 0 0 1-8 8h-9.376a23.885 23.885 0 0 0 1.376-8V40a23.885 23.885 0 0 0-1.376-8H472a8.01 8.01 0 0 1 8 8z"></path><path d="M400 480H288a24.027 24.027 0 0 1-24-24v-24h16v24a8.01 8.01 0 0 0 8 8h112a8 8 0 0 0 0-16h-48a24 24 0 0 1 0-48h72a8 8 0 0 0 0-16h-32a24 24 0 0 1 0-48h48a8.01 8.01 0 0 0 8-8V208h16v120a24.027 24.027 0 0 1-24 24h-48a8 8 0 0 0 0 16h32a24 24 0 0 1 0 48h-72a8 8 0 0 0 0 16h48a24 24 0 0 1 0 48z"></path></g><!----></svg>