<svg data-v-fde0c5aa="" xmlns="http://www.w3.org/2000/svg" viewBox="0 0 300 300" class="iconLeft"><!----><defs data-v-fde0c5aa=""><!----></defs><rect data-v-fde0c5aa="" fill="transparent" x="0" y="0" width="300px" height="300px" class="logo-background-square"></rect><defs data-v-fde0c5aa=""><!----></defs><g data-v-fde0c5aa="" id="54d0af72-e607-4a17-87a2-2b37f70d78e5" fill="#FB750D" transform="matrix(1.4099849132327698,0,0,1.4099849132327698,77.32235842007493,135.9565105427562)"><path d="M1.68 13.55L2.27 13.55L2.27 10.29L5.12 10.29C7.53 10.29 8.89 9.09 8.89 6.99C8.89 4.94 7.53 3.77 5.12 3.77L1.68 3.77ZM2.27 9.72L2.27 4.34L5.11 4.34C7.15 4.34 8.33 5.28 8.33 7.00C8.33 8.75 7.15 9.72 5.11 9.72ZM9.97 9.91C9.97 12.05 11.47 13.57 13.52 13.57C14.69 13.57 15.68 13.13 16.35 12.40L16.02 12.03C15.43 12.67 14.55 13.03 13.55 13.03C11.86 13.03 10.63 11.84 10.54 10.07L16.91 10.07C16.95 7.81 15.67 6.24 13.52 6.24C11.47 6.24 9.97 7.77 9.97 9.91ZM10.56 9.55C10.70 7.90 11.89 6.78 13.52 6.78C15.19 6.78 16.27 7.90 16.38 9.55ZM18.21 9.91C18.21 12.05 19.71 13.57 21.77 13.57C22.93 13.57 23.93 13.13 24.60 12.40L24.26 12.03C23.67 12.67 22.79 13.03 21.80 13.03C20.10 13.03 18.87 11.84 18.79 10.07L25.16 10.07C25.20 7.81 23.91 6.24 21.77 6.24C19.71 6.24 18.21 7.77 18.21 9.91ZM18.80 9.55C18.94 7.90 20.13 6.78 21.77 6.78C23.44 6.78 24.51 7.90 24.63 9.55ZM27.24 13.55L27.83 13.55L27.83 9.60C27.96 7.91 28.94 6.85 30.55 6.85L30.55 6.24C29.25 6.27 28.29 6.92 27.83 8.09L27.83 6.26L27.24 6.26ZM31.64 9.58L34.76 9.58L34.76 9.10L31.64 9.10ZM37.39 13.55L37.98 13.55L37.98 10.29L40.84 10.29C43.25 10.29 44.60 9.09 44.60 6.99C44.60 4.94 43.25 3.77 40.84 3.77L37.39 3.77ZM37.98 9.72L37.98 4.34L40.82 4.34C42.87 4.34 44.04 5.28 44.04 7.00C44.04 8.75 42.87 9.72 40.82 9.72ZM46.47 13.55L47.05 13.55L47.05 9.60C47.18 7.91 48.16 6.85 49.77 6.85L49.77 6.24C48.47 6.27 47.52 6.92 47.05 8.09L47.05 6.26L46.47 6.26ZM50.58 9.90C50.58 12.05 52.11 13.57 54.18 13.57C56.27 13.57 57.78 12.05 57.78 9.90C57.78 7.77 56.27 6.24 54.18 6.24C52.11 6.24 50.58 7.77 50.58 9.90ZM51.16 9.91C51.16 8.08 52.43 6.80 54.18 6.80C55.94 6.80 57.20 8.08 57.20 9.91C57.20 11.75 55.94 13.02 54.18 13.02C52.43 13.02 51.16 11.75 51.16 9.91ZM59.12 9.76C59.12 11.79 60.54 13.26 62.50 13.26C63.88 13.26 64.97 12.54 65.48 11.38L65.48 12.75C65.48 14.57 64.30 15.74 62.50 15.72C61.45 15.69 60.62 15.36 59.86 14.64L59.56 15.08C60.41 15.85 61.35 16.24 62.51 16.27C64.65 16.28 66.04 14.91 66.04 12.75L66.04 6.26L65.48 6.26L65.48 8.13C64.96 6.97 63.88 6.24 62.48 6.24C60.54 6.24 59.12 7.71 59.12 9.76ZM59.67 9.77C59.67 8.04 60.89 6.78 62.57 6.78C64.25 6.78 65.48 8.04 65.48 9.77C65.48 11.49 64.25 12.75 62.57 12.75C60.87 12.75 59.67 11.49 59.67 9.77ZM68.75 13.55L69.34 13.55L69.34 9.60C69.47 7.91 70.45 6.85 72.06 6.85L72.06 6.24C70.76 6.27 69.80 6.92 69.34 8.09L69.34 6.26L68.75 6.26ZM73.01 11.42C73.01 12.66 73.98 13.57 75.42 13.57C76.68 13.57 77.71 13.12 78.33 12.11L78.34 13.55L78.92 13.55L78.89 8.71C78.88 7.20 77.94 6.24 76.22 6.24C75.11 6.24 74.27 6.65 73.40 7.28L73.68 7.73C74.45 7.14 75.22 6.78 76.13 6.78C77.59 6.78 78.30 7.52 78.32 8.75L78.32 9.46L75.73 9.46C74.05 9.46 73.01 10.21 73.01 11.42ZM73.57 11.41C73.57 10.47 74.35 9.98 75.78 9.98L78.33 9.98L78.33 11.17C77.88 12.45 76.86 13.03 75.50 13.03C74.31 13.03 73.57 12.38 73.57 11.41ZM81.59 13.55L82.17 13.55L82.17 9.98C82.17 8.08 83.20 6.87 84.95 6.83C86.41 6.83 87.29 7.71 87.29 9.21L87.29 13.55L87.86 13.55L87.86 9.98C87.86 8.08 88.89 6.87 90.64 6.83C92.11 6.83 92.97 7.71 92.97 9.21L92.97 13.55L93.55 13.55L93.55 9.10C93.55 7.32 92.53 6.24 90.78 6.24C89.28 6.27 88.24 7.00 87.79 8.36C87.54 7.03 86.58 6.24 85.11 6.24C83.66 6.27 82.64 6.93 82.17 8.18L82.17 6.26L81.59 6.26ZM96.22 13.55L96.80 13.55L96.80 9.98C96.80 8.08 97.83 6.87 99.58 6.83C101.04 6.83 101.92 7.71 101.92 9.21L101.92 13.55L102.49 13.55L102.49 9.98C102.49 8.08 103.52 6.87 105.27 6.83C106.74 6.83 107.60 7.71 107.60 9.21L107.60 13.55L108.18 13.55L108.18 9.10C108.18 7.32 107.16 6.24 105.41 6.24C103.91 6.27 102.87 7.00 102.42 8.36C102.17 7.03 101.21 6.24 99.74 6.24C98.29 6.27 97.27 6.93 96.80 8.18L96.80 6.26L96.22 6.26ZM110.66 4.16C110.66 4.45 110.88 4.68 111.15 4.68C111.41 4.68 111.64 4.45 111.64 4.16C111.64 3.88 111.41 3.65 111.15 3.65C110.88 3.65 110.66 3.88 110.66 4.16ZM110.85 13.55L111.43 13.55L111.43 6.26L110.85 6.26ZM114.35 13.55L114.94 13.55L114.94 9.60C115.07 7.92 116.10 6.87 117.78 6.83C119.28 6.83 120.16 7.71 120.16 9.21L120.16 13.55L120.75 13.55L120.75 9.10C120.75 7.32 119.70 6.24 117.92 6.24C116.47 6.27 115.43 6.92 114.94 8.12L114.94 6.26L114.35 6.26ZM122.64 9.76C122.64 11.79 124.05 13.26 126.01 13.26C127.40 13.26 128.49 12.54 129.00 11.38L129.00 12.75C129.00 14.57 127.82 15.74 126.01 15.72C124.96 15.69 124.14 15.36 123.38 14.64L123.07 15.08C123.93 15.85 124.87 16.24 126.03 16.27C128.17 16.28 129.56 14.91 129.56 12.75L129.56 6.26L129.00 6.26L129.00 8.13C128.48 6.97 127.40 6.24 126 6.24C124.05 6.24 122.64 7.71 122.64 9.76ZM123.19 9.77C123.19 8.04 124.40 6.78 126.08 6.78C127.76 6.78 129.00 8.04 129.00 9.77C129.00 11.49 127.76 12.75 126.08 12.75C124.39 12.75 123.19 11.49 123.19 9.77Z"></path></g><defs data-v-fde0c5aa=""><linearGradient data-v-fde0c5aa="" gradientTransform="rotate(25)" id="a54ce578-fbfb-4e70-acb6-38bdfa9153e6" x1="0%" y1="0%" x2="100%" y2="0%"><stop data-v-fde0c5aa="" offset="0%" stop-color="#FC983D" stop-opacity="1"></stop><stop data-v-fde0c5aa="" offset="100%" stop-color="#FB750D" stop-opacity="1"></stop></linearGradient></defs><g data-v-fde0c5aa="" id="51452451-1b78-4cfd-8bc6-ec9bb7afe1ac" stroke="none" fill="url(#a54ce578-fbfb-4e70-acb6-38bdfa9153e6)" transform="matrix(0.05957842225096568,0,0,0.05957842225096568,38.0934904879691,134.7479239037528)"><path d="M296 264v144a8.01 8.01 0 0 1-8 8h-9.376a23.885 23.885 0 0 0 1.376-8V264a23.885 23.885 0 0 0-1.376-8H288a8.01 8.01 0 0 1 8 8zm-67.928 197.24a12 12 0 0 1-9.915 18.76h-38.701a27.934 27.934 0 0 0 2.423-16H200v-16h-25.59L163.5 432h44.635zM40 416a8.01 8.01 0 0 1-8-8V264a8.01 8.01 0 0 1 8-8h216a8.01 8.01 0 0 1 8 8v144a8.01 8.01 0 0 1-8 8zm372.072-178.76a12 12 0 0 1-9.915 18.76h-38.7a27.934 27.934 0 0 0 2.422-16H384v-16h-25.59L347.5 208h44.635zM224 192a8.01 8.01 0 0 1-8-8V40a8.01 8.01 0 0 1 8-8h216a8.01 8.01 0 0 1 8 8v144a8.01 8.01 0 0 1-8 8zm256-8a8.01 8.01 0 0 1-8 8h-9.376a23.885 23.885 0 0 0 1.376-8V40a23.885 23.885 0 0 0-1.376-8H472a8.01 8.01 0 0 1 8 8z"></path><path d="M400 480H288a24.027 24.027 0 0 1-24-24v-24h16v24a8.01 8.01 0 0 0 8 8h112a8 8 0 0 0 0-16h-48a24 24 0 0 1 0-48h72a8 8 0 0 0 0-16h-32a24 24 0 0 1 0-48h48a8.01 8.01 0 0 0 8-8V208h16v120a24.027 24.027 0 0 1-24 24h-48a8 8 0 0 0 0 16h32a24 24 0 0 1 0 48h-72a8 8 0 0 0 0 16h48a24 24 0 0 1 0 48z"></path></g><!----></svg>
